<?xml version="1.0" encoding="utf-8"?>
<!-- Generator: Adobe Illustrator 25.2.1, SVG Export Plug-In . SVG Version: 6.00 Build 0)  -->
<svg version="1.1" id="svg-container" xmlns="http://www.w3.org/2000/svg" xmlns:xlink="http://www.w3.org/1999/xlink" x="0px"
	 y="0px" viewBox="0 0 5760 3028" style="enable-background:new 0 0 5760 3028;" xml:space="preserve">
<style type="text/css">
	.st0{fill:#FFFFFF;}
	.st1{fill:#810000;}
	.st2{fill:#7B0000;}
	.st3{fill:#850000;}
	.st4{fill:#980000;}
	.st5{fill:#EF0000;}
	.st6{fill:#F80000;}
	.st7{fill:#C30000;}
	.st8{fill:#A00000;}
	.st9{fill:#760000;}
	.st10{fill:#FC0000;}
	.st11{fill:#B40000;}
	.st12{fill:#6D0000;}
	.st13{fill:#790000;}
	.st14{fill:#8B0000;}
	.st15{fill:#FB0000;}
	.st16{fill:#690000;}
	.st17{fill:#A90000;}
	.st18{fill:#B70000;}
	.st19{fill:#A10000;}
	.st20{fill:#9D0000;}
	.st21{fill:#A20000;}
	.st22{fill:#A40000;}
	.st23{fill:#E20000;}
	.st24{fill:#AC0000;}
	.st25{fill:#AA0000;}
	.st26{fill:#CF0000;}
	.st27{fill:#780000;}
	.st28{fill:#B20000;}
	.st29{fill:#BF0000;}
	.st30{fill:#910000;}
	.st31{fill:#BC0000;}
	.st32{fill:#D50000;}
	.st33{fill:#EC0000;}
	.st34{fill:#D90000;}
	.st35{fill:#D10000;}
	.st36{fill:#6E0000;}
	.st37{fill:#E60000;}
	.st38{fill:#DB0000;}
	.st39{fill:#FE0000;}
	.st40{fill:#870000;}
	.st41{fill:#F10000;}
	.st42{fill:#D40000;}
	.st43{fill:#C90000;}
	.st44{fill:#BE0000;}
	.st45{fill:#730000;}
	.st46{fill:#E00000;}
	.st47{fill:#D30000;}
	.st48{fill:#6F0000;}
	.st49{fill:#7A0000;}
	.st50{fill:#650000;}
	.st51{fill:#9A0000;}
	.st52{fill:#A70000;}
	.st53{fill:#7C0000;}
	.st54{fill:#F40000;}
	.st55{fill:#770000;}
	.st56{fill:#C70000;}
	.st57{fill:#F20000;}
	.st58{fill:#8D0000;}
	.st59{fill:#E30000;}
	.st60{fill:#660000;}
	.st61{fill:#FF0000;}
	.st62{fill:#E80000;}
	.st63{fill:#BD0000;}
	.st64{fill:#7D0000;}
	.st65{fill:#6C0000;}
	.st66{fill:#9C0000;}
	.st67{fill:#BB0000;}
	.st68{fill:#B10000;}
	.st69{fill:#9F0000;}
	.st70{fill:#950000;}
	.st71{fill:#CD0000;}
	.st72{fill:#C00000;}
	.st73{fill:#820000;}
	.st74{fill:#DA0000;}
	.st75{fill:#890000;}
	.st76{fill:#FD0000;}
	.st77{fill:#720000;}
	.st78{fill:#940000;}
	.st79{fill:#B90000;}
	.st80{fill:#F90000;}
	.st81{fill:#A50000;}
	.st82{fill:#9B0000;}
	.st83{fill:#B00000;}
	.st84{fill:#7E0000;}
	.st85{fill:#F70000;}
	.st86{fill:#840000;}
	.st87{fill:#F50000;}
	.st88{fill:#B80000;}
	.st89{fill:#A80000;}
	.st90{fill:#BA0000;}
	.st91{fill:#740000;}
	.st92{fill:#750000;}
	.st93{fill:#DD0000;}
	.st94{fill:#DE0000;}
	.st95{fill:#860000;}
	.st96{fill:#CB0000;}
	.st97{fill:#640000;}
	.st98{fill:#990000;}
	.st99{fill:#680000;}
	.st100{fill:#DC0000;}
	.st101{fill:#9E0000;}
	.st102{fill:#880000;}
	.st103{fill:#C20000;}
	.st104{fill:#830000;}
	.st105{fill:#C60000;}
	.st106{fill:#AB0000;}
	.st107{fill:#EA0000;}
	.st108{fill:#AD0000;}
	.st109{fill:#A60000;}
	.st110{fill:#900000;}
	.st111{fill:#800000;}
	.st112{fill:#920000;}
	.st113{fill:#C80000;}
</style>
<g>
	<g>
		<path class="st0" d="M-2632.5-2491.3c79.7-67.6,179.9-6.4,112.7,68.9c112.8,75.9,50.9,136.5-69.6,68.2
			c-77.8,66.6-177.9,5.4-112.7-68.9C-2816.2-2498.1-2754.3-2558.7-2632.5-2491.3z"/>
		<path class="st1" d="M-2775.6-2104.2c152.6-131,350.2-7,222.3,139.6c221.4,154.4,104.9,271.5-131.1,131.5
			c-144.8,127-342.2,2.6-222.2-139.8C-3133.3-2123.7-3016.9-2240.3-2775.6-2104.2z"/>
		<path class="st0" d="M-2342.8-1571c73.5-64,168.8-0.1,107.2,72c107.3,79,50.4,136.8-64,65c-71.6,63.1-166.8-1.1-107.1-72.1
			C-2515.4-1584.4-2458.5-1642-2342.8-1571z"/>
		<path class="st2" d="M-2469.1-1193.8c140.1-123.6,327.8,6.1,211.1,146.2c210.3,160.9,103.6,272.2-119.8,124.9
			c-132.4,119.4-319.5-11.3-210.8-146.7C-2804.1-1227.2-2698-1337.4-2469.1-1193.8z"/>
		<path class="st0" d="M-2053.1-650.8c67.4-60.5,157.8,6.2,101.6,75.2c101.8,82.1,49.8,137.2-58.5,61.8
			c-65.5,59.5-155.7-7.6-101.5-75.4C-2214.5-670.6-2162.7-725.3-2053.1-650.8z"/>
		<path class="st3" d="M-2162.6-283.4c127.6-116.3,305.4,19.1,199.8,152.8c199.2,167.3,102.4,273-108.5,118.3
			c-120,111.9-296.8-25.2-199.3-153.7C-2474.8-330.6-2379.1-434.5-2162.6-283.4z"/>
		<path class="st0" d="M-1763.4,269.5c61.3-57,146.7,12.5,96.1,78.4c96.3,85.3,49.2,137.5-52.9,58.6c-59.4,56-144.6-14.1-95.9-78.7
			C-1913.7,243.1-1866.9,191.4-1763.4,269.5z"/>
		<path class="st4" d="M-1856.1,627c115.1-108.9,283,32.2,188.6,159.4c188,173.7,101.1,273.7-97.3,111.7
			c-107.6,104.5-274.1-39-187.8-160.6C-2145.6,565.9-2060.2,468.4-1856.1,627z"/>
		<path class="st0" d="M-1473.7,1189.7c55.1-53.5,135.7,18.9,90.5,81.6c90.8,88.4,48.6,137.8-47.4,55.4
			c-53.3,52.4-133.5-20.6-90.3-81.9C-1612.9,1156.9-1571.1,1108.1-1473.7,1189.7z"/>
		<path class="st5" d="M-1549.6,1537.4c102.6-101.5,260.6,45.3,177.3,166.1c176.9,180.2,99.9,274.5-86,105
			c-95.2,97-251.4-52.9-176.4-167.6C-1816.4,1462.5-1741.3,1371.3-1549.6,1537.4z"/>
		<path class="st0" d="M-1184,2110c49-49.9,124.6,25.2,84.9,84.8c85.4,91.5,48.1,138.2-41.8,52.2c-47.2,48.9-122.3-27.1-84.7-85.2
			C-1312.1,2070.6-1275.3,2024.8-1184,2110z"/>
		<path class="st6" d="M-1243,2447.8c90.1-94.1,238.3,58.4,166,172.7c165.8,186.7,98.7,275.3-74.8,98.4
			c-82.8,89.5-228.7-66.7-164.9-174.5C-1487.2,2359-1422.3,2274.2-1243,2447.8z"/>
		<path class="st0" d="M-894.3,3030.2c42.9-46.4,113.6,31.5,79.4,88c79.9,94.6,47.5,138.5-36.2,49c-41.1,45.3-111.2-33.6-79.1-88.5
			C-1011.3,2984.4-979.5,2941.5-894.3,3030.2z"/>
		<path class="st7" d="M-936.5,3358.2c77.6-86.6,215.9,71.5,154.8,179.3c154.7,193.2,97.5,276.1-63.5,91.8
			c-70.4,82.1-206-80.5-153.5-181.5C-1158,3255.6-1103.4,3177.2-936.5,3358.2z"/>
		<path class="st0" d="M-604.6,3950.5c36.8-42.9,102.5,37.8,73.8,91.1c74.4,97.8,46.9,138.9-30.7,45.9
			c-35,41.8-100.1-40.1-73.5-91.7C-710.5,3898.2-683.7,3858.2-604.6,3950.5z"/>
		<path class="st8" d="M-630.1,4268.5c65.2-79.2,193.6,84.6,143.5,185.9c143.6,199.7,96.3,276.9-52.2,85.2
			c-57.9,74.7-183.2-94.3-142-188.4C-828.7,4152.2-784.5,4080.1-630.1,4268.5z"/>
		<path class="st0" d="M-314.9,4870.7c30.6-39.3,91.5,44.1,68.3,94.3c68.9,100.9,46.4,139.2-25.1,42.7c-28.9,38.3-89-46.6-67.9-95
			C-409.7,4811.9-387.9,4775-314.9,4870.7z"/>
		<path class="st9" d="M-323.6,5178.9c52.8-71.7,171.2,97.7,132.3,192.5c132.5,206.2,95.1,277.8-41,78.6
			c-45.5,67.2-160.5-108.1-130.6-195.4C-499.5,5048.7-465.5,4983-323.6,5178.9z"/>
		<path class="st0" d="M-25.2,5791c24.5-35.8,80.5,50.4,62.7,97.5c63.5,104.1,45.8,139.6-19.6,39.5c-22.7,34.7-77.8-53-62.3-98.3
			C-108.8,5725.7-92.1,5691.7-25.2,5791z"/>
		<path class="st10" d="M-17.1,6089.3c40.3-64.3,148.9,110.9,121,199.1c121.5,212.8,94,278.6-29.7,72
			c-33,59.9-137.7-121.8-119.1-202.3C-170.2,5945.3-146.5,5886-17.1,6089.3z"/>
		<path class="st0" d="M-2017.3-2490.5c82.3-69,180.1-6.5,110,70.3c109.8,77.5,45.5,139.5-72.4,69.7c-80.5,68.2-178.3,5.7-110-70.3
			C-2200.8-2497.5-2136.5-2559.4-2017.3-2490.5z"/>
		<path class="st11" d="M-2176.4-2094.2c158.1-134.4,351-8,217,142.3c215.6,157.3,93.9,277.6-136.9,135.2
			c-150.8,130.8-343.5,4-216.9-142.5C-2534-2113.4-2412.4-2233.2-2176.4-2094.2z"/>
		<path class="st0" d="M-1764.4-1549.8c76.4-65.9,169.5-1,104.7,73.2c104.5,80.2,44.9,139.8-67,66.9
			c-74.6,65.1-167.6-0.1-104.6-73.2C-1937.2-1562.6-1877.7-1621.9-1764.4-1549.8z"/>
		<path class="st12" d="M-1907.3-1162.3c146.1-127.9,329.4,3.6,206.2,148.2c204.9,163,92.7,278.3-126,129.3
			c-138.9,124.2-321.6-8.4-205.9-148.7C-2243-1193.8-2131.4-1308-1907.3-1162.3z"/>
		<path class="st0" d="M-1511.5-609.2c70.5-62.8,158.8,4.6,99.3,76c99.2,83,44.4,140.1-61.6,64.1c-68.7,61.9-156.9-5.8-99.2-76.1
			C-1673.6-627.7-1618.9-684.4-1511.5-609.2z"/>
		<path class="st13" d="M-1638.2-230.4c134.1-121.3,307.9,15.2,195.3,154.1c194.1,168.7,91.5,279-115.2,123.4
			c-126.9,117.5-299.8-20.8-194.8-154.9C-1952.1-274.3-1850.4-382.7-1638.2-230.4z"/>
		<path class="st0" d="M-1258.7,331.5c64.6-59.7,148.1,10.2,93.9,78.8c93.9,85.7,43.8,140.4-56.3,61.3
			c-62.9,58.8-146.1-11.6-93.8-79C-1410,307.2-1360.2,253.1-1258.7,331.5z"/>
		<path class="st14" d="M-1369.1,701.5c122-114.7,286.3,26.8,184.4,160c183.4,174.5,90.3,279.7-104.3,117.5
			c-115,110.8-277.9-33.1-183.8-161.1C-1661.1,645.3-1569.3,542.5-1369.1,701.5z"/>
		<path class="st0" d="M-1005.8,1272.1c58.7-56.6,137.5,15.7,88.6,81.6c88.6,88.5,43.3,140.7-50.9,58.5
			c-57,55.7-135.4-17.4-88.4-81.9C-1146.4,1242.1-1101.4,1190.7-1005.8,1272.1z"/>
		<path class="st15" d="M-1100,1633.4c110-108.1,264.7,38.4,173.6,165.8c172.7,180.2,89.1,280.4-93.5,111.7
			c-103,104.2-256.1-45.5-172.8-167.3C-1370.2,1564.8-1288.3,1467.8-1100,1633.4z"/>
		<path class="st0" d="M-752.9,2212.8c52.8-53.5,126.8,21.3,83.2,84.4c83.4,91.3,42.7,141-45.5,55.7c-51.1,52.5-124.7-23.1-83-84.8
			C-882.8,2177-842.6,2128.2-752.9,2212.8z"/>
		<path class="st16" d="M-830.9,2565.3c98-101.5,243.1,50,162.7,171.7c162,185.9,88,281.1-82.6,105.8
			c-91,97.5-234.2-57.8-161.8-173.6C-1079.2,2484.4-1007.2,2393-830.9,2565.3z"/>
		<path class="st0" d="M-500,3153.5c46.9-50.3,116.2,26.9,77.8,87.2c78.1,94,42.2,141.3-40.2,52.8c-45.2,49.4-114-28.9-77.6-87.7
			C-619.2,3111.9-583.8,3065.7-500,3153.5z"/>
		<path class="st17" d="M-561.8,3497.2c85.9-94.9,221.6,61.7,151.9,177.6c151.3,191.7,86.8,281.8-71.8,99.9
			c-79.1,90.9-212.3-70.2-150.7-179.8C-788.3,3403.9-726.2,3318.3-561.8,3497.2z"/>
		<path class="st0" d="M-247.2,4094.1c40.9-47.2,105.5,32.5,72.5,90c72.8,96.8,41.7,141.6-34.8,50c-39.3,46.3-103.2-34.6-72.2-90.6
			C-355.6,4046.8-325.1,4003.2-247.2,4094.1z"/>
		<path class="st18" d="M-292.8,4429.1c73.9-88.3,200,73.3,141,183.4c140.6,197.5,85.6,282.6-60.9,94.1
			c-67.1,84.3-190.4-82.5-139.7-186C-497.3,4323.5-445.1,4243.6-292.8,4429.1z"/>
		<path class="st0" d="M5.7,5034.8c35-44.1,94.9,38,67.1,92.8c67.5,99.6,41.1,141.9-29.5,47.2c-33.4,43.1-92.5-40.4-66.8-93.5
			C-92,4981.8-66.3,4940.8,5.7,5034.8z"/>
		<path class="st12" d="M-23.7,5361c62-81.7,178.5,85,130.2,189.3c129.9,203.3,84.5,283.4-50.1,88.2
			c-55.1,77.7-168.5-94.8-128.7-192.2C-206.3,5243.1-164.1,5168.9-23.7,5361z"/>
		<path class="st0" d="M258.6,5975.4c29.1-40.9,84.2,43.6,61.7,95.6c62.2,102.3,40.6,142.3-24.1,44.4c-27.5,40-81.8-46.1-61.4-96.4
			C171.6,5916.7,192.5,5878.3,258.6,5975.4z"/>
		<path class="st19" d="M245.4,6292.9c50-75,157,96.7,119.3,195.2c119.2,209.1,83.4,284.1-39.2,82.3
			c-43.1,71.1-146.6-107.1-117.6-198.4C84.6,6162.7,117,6094.2,245.4,6292.9z"/>
		<path class="st0" d="M-1402.1-2489.9c84.9-70.3,180.4-6.7,107.4,71.6c106.9,78.9,40.2,142-75,71.1
			c-83.2,69.6-178.6,5.9-107.4-71.6C-1585.4-2496.9-1518.7-2560.1-1402.1-2489.9z"/>
		<path class="st20" d="M-1576.5-2085.4c163.5-137.5,351.8-8.9,211.9,144.7c210,159.7,83.2,283-142.5,138.4
			c-156.5,134.4-344.6,5.4-211.8-144.9C-1934-2104.2-1807.5-2226.9-1576.5-2085.4z"/>
		<path class="st0" d="M-1184.8-1531.3c79.2-67.6,170-1.9,102.2,74.1c101.8,81.2,39.7,142.3-69.8,68.6
			c-77.5,66.9-168.3,0.9-102.2-74.2C-1357.7-1543.4-1295.7-1604.3-1184.8-1531.3z"/>
		<path class="st21" d="M-1343.5-1134.5c151.9-131.7,330.9,1.2,201.4,149.8c199.6,164.7,82.1,283.6-132,133.3
			c-145,128.5-323.5-5.5-201.1-150.4C-1679.9-1164.1-1563-1281.9-1343.5-1134.5z"/>
		<path class="st0" d="M-967.5-572.7c73.5-64.9,159.7,3,97,76.5c96.7,83.6,39.2,142.6-64.6,66.2c-71.8,64.2-157.9-4.1-96.9-76.7
			C-1130-589.8-1072.7-648.4-967.5-572.7z"/>
		<path class="st19" d="M-1110.6-183.6c140.2-126,310.1,11.3,190.9,155c189.2,169.7,81,284.2-121.5,128.2
			c-133.4,122.7-302.4-16.4-190.5-155.8C-1425.9-224.1-1318.5-336.8-1110.6-183.6z"/>
		<path class="st0" d="M-750.2,385.9c67.7-62.2,149.4,7.8,91.8,78.9c91.6,86,38.7,142.9-59.5,63.8c-66.1,61.4-147.5-9.1-91.7-79.2
			C-902.3,363.7-849.6,307.4-750.2,385.9z"/>
		<path class="st22" d="M-877.6,767.4c128.6-120.2,289.2,21.5,180.4,160.1c178.8,174.7,79.8,284.9-111,123.1
			c-121.9,116.8-281.3-27.3-179.8-161.3C-1171.8,716-1073.9,608.3-877.6,767.4z"/>
		<path class="st0" d="M-532.9,1344.4c62-59.5,139.1,12.6,86.6,81.4c86.4,88.4,38.1,143.1-54.3,61.3
			c-60.4,58.7-137.1-14.1-86.5-81.7C-674.6,1317.3-626.6,1263.3-532.9,1344.4z"/>
		<path class="st23" d="M-644.6,1718.3c117-114.4,268.3,31.6,169.9,165.2c168.4,179.8,78.7,285.5-100.5,117.9
			c-110.3,111-260.2-38.1-169.2-166.7C-917.7,1656.1-829.4,1553.4-644.6,1718.3z"/>
		<path class="st0" d="M-315.6,2303c56.3-56.8,128.8,17.5,81.4,83.8c81.3,90.8,37.6,143.4-49.1,58.9c-54.7,56-126.8-19.1-81.2-84.3
			C-447,2270.9-403.6,2219.1-315.6,2303z"/>
		<path class="st24" d="M-411.6,2669.2c105.4-108.6,247.5,41.8,159.4,170.4c158.1,184.8,77.6,286.2-90,112.8
			c-98.8,105.2-239.1-49-158.5-172.2C-663.6,2596.1-584.8,2498.5-411.6,2669.2z"/>
		<path class="st0" d="M-98.3,3261.6c50.6-54.1,118.5,22.3,76.2,86.3c76.2,93.2,37.1,143.7-43.9,56.5c-49,53.3-116.4-24.1-76-86.8
			C-219.3,3224.4-180.6,3175-98.3,3261.6z"/>
		<path class="st22" d="M-178.6,3620.1c93.7-102.8,226.6,51.9,148.9,175.5c147.7,189.8,76.5,286.8-79.5,107.7
			c-87.2,99.4-218-59.8-147.9-177.7C-409.5,3536.2-340.3,3443.7-178.6,3620.1z"/>
		<path class="st0" d="M119,4220.2c44.9-51.4,108.1,27.2,71,88.7c71.1,95.6,36.6,144-38.7,54c-43.3,50.6-106-29.2-70.8-89.3
			C8.4,4178,42.4,4130.8,119,4220.2z"/>
		<path class="st25" d="M54.3,4571.1c82.1-97,205.8,62.1,138.4,180.6c137.4,194.9,75.4,287.5-69,102.6
			c-75.6,93.6-196.9-70.7-137.2-183.1C-155.4,4476.3-95.8,4388.8,54.3,4571.1z"/>
		<path class="st0" d="M336.3,5178.7c39.2-48.6,97.8,32,65.8,91.1c66,98,36,144.2-33.5,51.6c-37.6,47.8-95.6-34.2-65.5-91.8
			C236.1,5131.5,265.4,5086.7,336.3,5178.7z"/>
		<path class="st26" d="M287.3,5522c70.6-91.2,184.9,72.3,127.9,185.7c127,199.9,74.3,288.2-58.5,97.4
			c-64,87.8-175.7-81.5-126.6-188.6C98.7,5416.3,148.8,5333.9,287.3,5522z"/>
		<path class="st0" d="M553.6,6137.3c33.4-45.9,87.5,36.8,60.6,93.6c60.8,100.4,35.5,144.5-28.3,49.1
			c-31.8,45.1-85.3-39.2-60.3-94.3C463.8,6085.1,488.4,6042.5,553.6,6137.3z"/>
		<path class="st27" d="M520.3,6472.9c59-85.4,164.1,82.5,117.4,190.9c116.7,205,73.2,288.9-48,92.3c-52.4,82-154.6-92.3-115.9-194
			C352.8,6356.4,393.4,6279,520.3,6472.9z"/>
		<path class="st0" d="M-786.8-2489.3c87.4-71.5,180.6-6.8,104.8,72.7c104.1,80,35.2,144.3-77.6,72.3c-85.8,70.9-179,6.2-104.8-72.7
			C-969.9-2496.4-900.9-2560.7-786.8-2489.3z"/>
		<path class="st28" d="M-976.2-2077.8c168.7-140.2,352.5-9.8,206.8,146.7c204.5,161.8,73,287.6-147.9,141.4
			c-162,137.5-345.7,6.8-206.8-146.9C-1333.5-2096.1-1202.2-2221.5-976.2-2077.8z"/>
		<path class="st0" d="M-604-1515.3c81.9-69.2,170.6-2.7,99.8,74.8c99.2,82,34.6,144.5-72.6,70.2c-80.2,68.5-168.9,1.9-99.8-74.9
			C-777-1526.7-712.5-1589-604-1515.3z"/>
		<path class="st29" d="M-778.1-1110.4c157.4-135.2,332.3-1.2,196.6,151.1c194.4,166.1,71.9,288.2-137.7,137
			c-150.8,132.5-325.3-2.6-196.4-151.6C-1115-1138-993-1259-778.1-1110.4z"/>
		<path class="st0" d="M-421.2-541.3c76.3-66.9,160.5,1.4,94.7,76.9c94.2,84.1,34.1,144.7-67.5,68.1c-74.7,66.2-158.8-2.4-94.7-77
			C-584.1-557-524.2-617.3-421.2-541.3z"/>
		<path class="st30" d="M-580.1-142.9c146.1-130.3,312,7.5,186.5,155.5c184.3,170.3,70.8,288.7-127.5,132.6
			c-139.6,127.5-304.8-12-186.1-156.3C-896.6-179.9-783.7-296.6-580.1-142.9z"/>
		<path class="st0" d="M-238.4,432.7c70.8-64.6,150.5,5.5,89.7,78.9c89.2,86.1,33.6,145-62.5,66.1c-69.2,63.9-148.7-6.6-89.6-79.2
			C-391.2,412.7-335.8,354.3-238.4,432.7z"/>
		<path class="st31" d="M-382,824.6c134.8-125.3,291.8,16.1,176.3,159.9c174.2,174.6,69.7,289.3-117.3,128.2
			c-128.4,122.5-284.4-21.4-175.8-161.1C-678.1,778.1-574.5,665.9-382,824.6z"/>
		<path class="st0" d="M-55.6,1406.7c65.2-62.2,140.5,9.6,84.6,81c84.2,88.1,33.1,145.2-57.4,64c-63.6,61.6-138.7-10.9-84.5-81.3
			C-198.3,1382.4-147.5,1326-55.6,1406.7z"/>
		<path class="st32" d="M-184,1792c123.6-120.3,271.5,24.8,166.1,164.3c164.2,178.9,68.6,289.9-107.1,123.8
			c-117.2,117.5-263.9-30.8-165.5-165.8C-459.6,1736.2-365.3,1628.3-184,1792z"/>
		<path class="st0" d="M127.2,2380.6c59.6-59.9,130.5,13.7,79.6,83.1c79.2,90.2,32.6,145.5-52.4,61.9
			c-58.1,59.3-128.6-15.2-79.4-83.5C-5.4,2352.1,40.9,2297.7,127.2,2380.6z"/>
		<path class="st33" d="M14,2759.5c112.3-115.4,251.3,33.5,155.9,168.6c154.1,183.2,67.5,290.5-96.9,119.4
			C-33,3160-170.5,3007.3-82.2,2877C-241.1,2694.3-156,2590.8,14,2759.5z"/>
		<path class="st0" d="M310.1,3354.6c54.1-57.6,120.4,17.8,74.6,85.1c74.3,92.2,32.1,145.7-47.3,59.9c-52.5,57-118.5-19.5-74.4-85.6
			C187.4,3321.8,229.2,3269.3,310.1,3354.6z"/>
		<path class="st34" d="M212,3726.9c101-110.4,231,42.2,145.7,173C501.8,4087.4,424.2,4191,271,4015
			c-94.8,107.5-223-49.6-144.8-175.2C-22.6,3652.3,53.2,3553.2,212,3726.9z"/>
		<path class="st0" d="M492.9,4328.6c48.5-55.3,110.4,21.9,69.5,87.2c69.3,94.2,31.6,145.9-42.3,57.8c-47,54.6-108.4-23.7-69.3-87.8
			C380.3,4291.5,417.6,4241,492.9,4328.6z"/>
		<path class="st35" d="M410.1,4694.3c89.8-105.4,210.8,50.9,135.5,177.4c134,191.8,65.4,291.7-76.6,110.7
			c-83.6,102.5-202.5-58.9-134.5-179.9C195.9,4610.4,262.5,4515.7,410.1,4694.3z"/>
		<path class="st0" d="M675.7,5302.6c43-53,100.4,26,64.5,89.3c64.3,96.3,31.1,146.2-37.2,55.7c-41.4,52.3-98.4-28-64.2-89.9
			C573.2,5261.2,606,5212.7,675.7,5302.6z"/>
		<path class="st36" d="M608.1,5661.8c78.6-100.4,190.6,59.6,125.3,181.8c124,196.1,64.3,292.3-66.4,106.3
			c-72.3,97.5-182-68.3-124.2-184.6C414.4,5568.5,471.7,5478.1,608.1,5661.8z"/>
		<path class="st0" d="M858.5,6276.6c37.4-50.7,90.4,30.1,59.4,91.3c59.4,98.3,30.6,146.4-32.2,53.7c-35.9,50-88.3-32.3-59.1-92.1
			C766.1,6231,794.3,6184.4,858.5,6276.6z"/>
		<path class="st10" d="M806.1,6629.2c67.3-95.4,170.4,68.3,115.2,186.2c114,200.5,63.3,292.9-56.2,101.9
			c-61.1,92.5-161.5-77.7-113.9-189.3C632.9,6526.6,681,6440.6,806.1,6629.2z"/>
		<path class="st0" d="M-171.6-2488.8c89.9-72.4,180.8-6.9,102.4,73.7c101.4,81,30.2,146.1-80.1,73.3
			c-88.3,71.9-179.3,6.4-102.4-73.7C-354.4-2496-283.2-2561.1-171.6-2488.8z"/>
		<path class="st37" d="M-375.3-2071.3c173.7-142.5,353.2-10.7,201.9,148.4c199.1,163.4,63,291.5-153.1,143.9
			c-167.3,140.3-346.7,8.1-201.9-148.6C-732.5-2089.1-596.5-2216.7-375.3-2071.3z"/>
		<path class="st0" d="M-22.3-1501.9c84.4-70.5,171.1-3.6,97.4,75.4c96.6,82.6,29.7,146.3-75.2,71.6c-82.9,70-169.4,2.9-97.4-75.4
			C-195.3-1512.7-128.5-1576.2-22.3-1501.9z"/>
		<path class="st38" d="M-211.2-1089.9c162.7-138.4,333.5-3.5,192,152c189.3,167,61.9,292-143.2,140.3
			c-156.4,136.1-326.8,0.2-191.8-152.5C-548.6-1115.5-421.6-1239.5-211.2-1089.9z"/>
		<path class="st0" d="M126.9-515c79-68.6,161.3-0.2,92.5,77c91.7,84.3,29.2,146.5-70.3,69.9c-77.5,68.1-159.6-0.6-92.5-77.2
			C-36.3-529.3,26.1-591.2,126.9-515z"/>
		<path class="st19" d="M-47.2-108.4c151.7-134.2,313.7,3.7,182.1,155.6C314.4,217.8,195.8,339.8,1.7,183.9
			c-145.5,131.9-306.9-7.7-181.8-156.5C-364.6-142-246.6-262.2-47.2-108.4z"/>
		<path class="st0" d="M276.2,471.9c73.6-66.7,151.5,3.1,87.6,78.7c86.8,86,28.7,146.7-65.4,68.2c-72.1,66.2-149.8-4.2-87.5-79
			C122.8,454.1,180.8,393.8,276.2,471.9z"/>
		<path class="st39" d="M116.9,873.1c140.8-130,294,10.9,172.2,159.3c169.7,174.1,59.8,293-123.3,133
			c-134.6,127.7-287-15.6-171.8-160.5C-180.6,831.6-71.6,715.1,116.9,873.1z"/>
		<path class="st0" d="M425.4,1458.8c68.2-64.8,141.7,6.5,82.7,80.4c82,87.6,28.2,146.9-60.4,66.5c-66.7,64.3-140-7.7-82.6-80.8
			C281.9,1437.4,335.4,1378.8,425.4,1458.8z"/>
		<path class="st40" d="M281,1854.6c129.8-125.9,274.3,18.1,162.2,162.9c159.8,177.6,58.8,293.5-113.4,129.4
			c-123.7,123.5-267.1-23.5-161.7-164.4C3.4,1805.2,103.4,1692.4,281,1854.6z"/>
		<path class="st0" d="M574.7,2445.7c62.8-62.9,131.9,9.8,77.7,82.1c77.1,89.3,27.7,147.1-55.5,64.8
			c-61.3,62.4-130.2-11.3-77.6-82.6C440.9,2420.8,490.1,2363.8,574.7,2445.7z"/>
		<path class="st41" d="M445.1,2836c118.8-121.7,254.5,25.3,152.3,166.5c150,181.2,57.7,294.1-103.5,125.7
			c-112.8,119.4-247.2-31.4-151.7-168.4C187.3,2778.8,278.4,2669.7,445.1,2836z"/>
		<path class="st0" d="M723.9,3432.6c57.4-61,122.1,13.2,72.8,83.8c72.3,91,27.2,147.4-50.6,63.1c-55.9,60.5-120.3-14.8-72.7-84.3
			C600,3404.2,644.7,3348.8,723.9,3432.6z"/>
		<path class="st42" d="M609.1,3817.5c107.9-117.6,234.8,32.5,142.4,170.2c140.3,184.8,56.7,294.6-93.5,122.1
			c-101.9,115.2-227.3-39.3-141.7-172.4C371.3,3752.3,453.4,3647,609.1,3817.5z"/>
		<path class="st0" d="M873.2,4419.5c51.9-59.1,112.4,16.6,67.9,85.5c67.4,92.6,26.7,147.6-45.7,61.4
			c-50.5,58.6-110.5-18.3-67.7-86.1C759.1,4387.5,799.4,4333.8,873.2,4419.5z"/>
		<path class="st43" d="M773.2,4799c96.9-113.4,215.1,39.7,132.5,173.8c130.5,188.4,55.7,295.1-83.6,118.4
			c-90.9,111-207.4-47.2-131.6-176.3C555.3,4725.9,628.4,4624.3,773.2,4799z"/>
		<path class="st0" d="M1022.4,5406.4c46.5-57.2,102.6,19.9,63,87.2c62.6,94.3,26.2,147.8-40.7,59.7c-45,56.7-100.7-21.8-62.8-87.9
			C918.2,5370.9,954.1,5318.8,1022.4,5406.4z"/>
		<path class="st34" d="M937.3,5780.4c86-109.2,195.4,46.9,122.5,177.5c120.7,191.9,54.7,295.7-73.7,114.8
			c-80,106.8-187.5-55.1-121.6-180.3C739.3,5699.5,803.3,5601.6,937.3,5780.4z"/>
		<path class="st0" d="M1171.7,6393.3c41.1-55.3,92.8,23.3,58,88.9c57.7,96,25.8,148-35.8,58c-39.6,54.8-90.9-25.4-57.8-89.7
			C1077.2,6354.2,1108.7,6303.8,1171.7,6393.3z"/>
		<path class="st44" d="M1101.3,6761.9c75-105,175.7,54.1,112.6,181.1c110.9,195.5,53.6,296.2-63.8,111.2
			c-69.1,102.7-167.5-63-111.5-184.3C923.2,6673.1,978.3,6578.9,1101.3,6761.9z"/>
		<path class="st0" d="M443.7-2488.4c92.3-73.2,181.1-7.1,99.9,74.4c98.8,81.7,25.4,147.6-82.6,74.1c-90.7,72.8-179.5,6.6-99.9-74.4
			C261.1-2495.7,334.5-2561.5,443.7-2488.4z"/>
		<path class="st45" d="M225.9-2066c178.6-144.5,353.8-11.6,197.1,149.6c193.8,164.6,53.2,294.6-158.1,146.1
			c-172.5,142.7-347.6,9.4-197.1-149.8C-131.1-2083.2,9.4-2212.8,225.9-2066z"/>
		<path class="st0" d="M560.2-1491.1c87-71.7,171.5-4.4,95.1,75.7c94,83,24.9,147.8-77.8,72.8c-85.5,71.3-169.9,3.8-95.1-75.8
			C387.2-1501.2,456.3-1565.7,560.2-1491.1z"/>
		<path class="st46" d="M356.9-1073c167.9-141.1,334.5-5.8,187.4,152.5C728.5-753,596.5-625.4,395.8-777.3
			C234-638,67.7-774.4,208.6-930.4C19.3-1096.7,151-1223.2,356.9-1073z"/>
		<path class="st0" d="M676.6-493.8c81.6-70.2,161.9-1.8,90.3,77c89.2,84.3,24.4,147.9-72.9,71.5c-80.2,69.8-160.3,1-90.2-77.2
			C513.2-506.7,578-569.9,676.6-493.8z"/>
		<path class="st47" d="M487.8-80C644.9-217.8,803-80.1,665.5,75.4c174.6,170.3,51.2,295.5-138.7,140.3
			c-151.1,136-308.7-3.5-177.5-156.3C169.7-110.1,292.6-233.5,487.8-80z"/>
		<path class="st0" d="M793.1,503.5c76.3-68.7,152.3,0.8,85.4,78.4C963,667.5,902.4,730,810.4,652c-74.9,68.3-150.7-1.7-85.4-78.6
			C639.3,487.9,699.7,425.9,793.1,503.5z"/>
		<path class="st48" d="M618.7,913c146.4-134.4,295.9,5.6,168,158.3c165,173.1,50.2,296-129,137.4
			c-140.5,132.6-289.3-9.9-167.7-159.5C320,876.5,434.2,756.1,618.7,913z"/>
		<path class="st0" d="M909.5,1500.8c71-67.2,142.7,3.4,80.6,79.7c79.7,86.9,23.4,148.3-63.3,68.8c-69.6,66.8-141.1-4.5-80.5-80
			C765.3,1482.4,821.5,1421.7,909.5,1500.8z"/>
		<path class="st49" d="M749.7,1906c135.7-131.1,276.6,11.3,158.3,161.2c155.4,176,49.2,296.4-119.3,134.5
			c-129.8,129.2-269.8-16.3-157.9-162.7C470.4,1863.1,575.8,1745.7,749.7,1906z"/>
		<path class="st0" d="M1025.9,2498.1c65.7-65.7,133.1,6.1,75.8,81c75,88.2,22.9,148.5-58.5,67.5c-64.3,65.3-131.5-7.3-75.7-81.4
			C891.4,2476.9,943.2,2417.5,1025.9,2498.1z"/>
		<path class="st50" d="M880.6,2899c125-127.7,257.3,17.1,148.6,164.1c145.8,178.8,48.2,296.9-109.6,131.6
			c-119.1,125.9-250.4-22.7-148.1-165.9C620.8,2849.6,717.5,2735.4,880.6,2899z"/>
		<path class="st0" d="M1142.4,3495.4c60.4-64.2,123.5,8.7,71,82.3c70.2,89.5,22.5,148.6-53.6,66.2c-59,63.8-121.9-10.1-70.8-82.8
			C1017.4,3471.4,1064.9,3413.3,1142.4,3495.4z"/>
		<path class="st51" d="M1011.6,3892c114.3-124.4,238,22.8,138.9,167c136.3,181.6,47.2,297.4-99.9,128.7
			c-108.4,122.5-231-29.1-138.3-169.2C771.2,3836.2,859.1,3725,1011.6,3892z"/>
		<path class="st0" d="M1258.8,4492.7c55.1-62.7,114,11.3,66.1,83.7c65.4,90.8,22,148.8-48.8,64.8c-53.7,62.3-112.2-12.9-66-84.2
			C1143.5,4465.9,1186.7,4409.2,1258.8,4492.7z"/>
		<path class="st52" d="M1142.5,4885c103.6-121,218.7,28.5,129.1,169.9c126.7,184.5,46.2,297.8-90.2,125.8
			c-97.8,119.2-211.5-35.6-128.5-172.4C921.6,4822.8,1000.7,4714.6,1142.5,4885z"/>
		<path class="st0" d="M1375.2,5490.1c49.8-61.2,104.4,13.9,61.3,85c60.7,92.1,21.5,149-44,63.5c-48.4,60.8-102.6-15.7-61.1-85.6
			C1269.6,5460.4,1308.4,5405,1375.2,5490.1z"/>
		<path class="st53" d="M1273.5,5877.9c92.8-117.7,199.4,34.3,119.4,172.8c117.1,187.3,45.2,298.3-80.4,122.9
			c-87.1,115.8-192.1-42-118.7-175.6C1072,5809.4,1142.3,5704.3,1273.5,5877.9z"/>
		<path class="st0" d="M1491.7,6487.4c44.5-59.7,94.8,16.6,56.5,86.3c55.9,93.4,21,149.1-39.1,62.2c-43.1,59.3-93-18.5-56.3-87.1
			C1395.6,6455,1430.1,6400.8,1491.7,6487.4z"/>
		<path class="st54" d="M1404.4,6870.9c82.2-114.3,180.1,40,109.7,175.7c107.5,190.2,44.2,298.8-70.7,120
			c-76.4,112.5-172.6-48.4-108.9-178.8C1222.4,6796,1284,6693.9,1404.4,6870.9z"/>
		<path class="st0" d="M1059.1-2488.1c94.6-73.7,181.3-7.1,97.5,74.9c96.1,82.3,20.6,148.7-85,74.7c-93.1,73.4-179.8,6.8-97.5-74.9
			C876.7-2495.4,952.2-2561.8,1059.1-2488.1z"/>
		<path class="st55" d="M827.4-2061.8c183.3-146.1,354.4-12.4,192.4,150.5c188.6,165.5,43.6,297-163.1,147.9
			c-177.5,144.7-348.4,10.6-192.4-150.7C470.7-2078.5,615.5-2209.7,827.4-2061.8z"/>
		<path class="st0" d="M1143.3-1482.9c89.4-72.7,171.8-5.3,92.8,75.9c91.4,83.2,20.1,148.8-80.2,73.8c-87.9,72.4-170.4,4.8-92.8-76
			C970.3-1492.3,1041.6-1557.7,1143.3-1482.9z"/>
		<path class="st56" d="M925.9-1059.8c172.8-143.5,335.4-8.1,182.9,152.7c179.2,167.6,42.6,297.4-153.5,145.7
			c-167,142.2-329.3,5.7-182.7-153.2C588.2-1081.4,724.5-1210.2,925.9-1059.8z"/>
		<path class="st0" d="M1227.5-477.7c84.2-71.6,162.4-3.4,88,76.8c86.8,84.2,19.6,149-75.5,72.8c-82.7,71.3-160.9,2.7-88-77
			C1064-489.1,1131.1-553.6,1227.5-477.7z"/>
		<path class="st57" d="M1024.4-57.8c162.3-141,316.4-3.9,173.3,154.8c169.7,169.7,41.7,297.8-144,143.6
			c-156.5,139.6-310.2,0.7-173.1-155.7C705.8-84.3,833.5-210.7,1024.4-57.8z"/>
		<path class="st0" d="M1311.7,527.5c78.9-70.5,153-1.5,83.3,77.8c82.1,85.1,19.2,149.1-70.7,71.9c-77.5,70.2-151.4,0.7-83.2-78
			C1157.7,514.1,1220.5,450.6,1311.7,527.5z"/>
		<path class="st19" d="M1122.9,944.2c151.8-138.5,297.4,0.4,163.8,157c160.3,171.8,40.7,298.2-134.4,141.4
			c-146,137.1-291.2-4.2-163.5-158.1C823.3,912.7,942.5,788.8,1122.9,944.2z"/>
		<path class="st0" d="M1396,1532.8c73.7-69.4,143.5,0.4,78.5,78.7c77.4,86,18.7,149.3-66,70.9c-72.3,69.1-142-1.4-78.5-79.1
			C1251.4,1517.3,1309.9,1454.7,1396,1532.8z"/>
		<path class="st52" d="M1221.4,1946.2c141.2-135.9,278.5,4.6,154.2,159.1c150.9,173.9,39.7,298.6-124.9,139.3
			c-135.5,134.6-272.1-9.1-153.9-160.6C940.9,1909.8,1051.4,1788.2,1221.4,1946.2z"/>
		<path class="st0" d="M1480.2,2538c68.5-68.3,134.1,2.3,73.8,79.7c72.7,87,18.2,149.4-61.2,70c-67.1,68-132.5-3.4-73.7-80.1
			C1345.1,2520.4,1399.4,2458.9,1480.2,2538z"/>
		<path class="st18" d="M1319.9,2948.3c130.7-133.4,259.5,8.9,144.7,161.3c141.5,176,38.7,299-115.3,137.1
			c-125,132-253-14.1-144.3-163.1C1058.4,2906.9,1160.4,2787.7,1319.9,2948.3z"/>
		<path class="st0" d="M1564.4,3543.2c63.3-67.2,124.7,4.2,69,80.6c68,87.9,17.8,149.5-56.5,69c-61.9,66.9-123.1-5.5-68.9-81.2
			C1438.8,3523.6,1488.8,3463,1564.4,3543.2z"/>
		<path class="st16" d="M1418.3,3950.3c120.2-130.9,240.5,13.1,135.1,163.4c132,178.1,37.8,299.4-105.8,135
			c-114.5,129.5-233.9-19-134.7-165.6C1176,3904,1269.4,3787.2,1418.3,3950.3z"/>
		<path class="st0" d="M1648.6,4548.4c58-66.1,115.2,6.1,64.3,81.6c63.3,88.8,17.3,149.7-51.7,68.1c-56.6,65.8-113.6-7.6-64.2-82.2
			C1532.4,4526.8,1578.3,4467.1,1648.6,4548.4z"/>
		<path class="st58" d="M1516.8,4952.3c109.7-128.3,221.6,17.4,125.6,165.6c122.6,180.2,36.8,299.8-96.2,132.8
			c-104,127-214.9-23.9-125-168.1C1293.6,4901.1,1378.3,4786.7,1516.8,4952.3z"/>
		<path class="st0" d="M1732.9,5553.7c52.8-65,105.8,7.9,59.5,82.5c58.6,89.8,16.8,149.8-47,67.1c-51.4,64.7-104.1-9.6-59.4-83.2
			C1626.1,5529.9,1667.7,5471.3,1732.9,5553.7z"/>
		<path class="st59" d="M1615.3,5954.3c99.2-125.8,202.6,21.7,116,167.7c113.2,182.3,35.9,300.2-86.7,130.7
			c-93.5,124.4-195.8-28.9-115.4-170.6C1411.1,5898.2,1487.3,5786.2,1615.3,5954.3z"/>
		<path class="st0" d="M1817.1,6558.9c47.6-63.9,96.3,9.8,54.8,83.5c54,90.7,16.4,149.9-42.2,66.2c-46.2,63.7-94.7-11.7-54.6-84.3
			C1719.8,6533.1,1757.2,6475.4,1817.1,6558.9z"/>
		<path class="st22" d="M1713.8,6956.3c88.7-123.2,183.6,25.9,106.5,169.9c103.8,184.4,34.9,300.5-77.1,128.5
			c-83,121.9-176.7-33.8-105.8-173C1528.7,6895.2,1596.3,6785.6,1713.8,6956.3z"/>
		<path class="st0" d="M1674.4-2487.9c96.9-74.1,181.5-7.2,95.2,75.3c93.5,82.6,15.9,149.5-87.4,75.2c-95.5,73.9-180.1,7-95.2-75.3
			C1492.2-2495.2,1569.8-2562,1674.4-2487.9z"/>
		<path class="st60" d="M1429.2-2058.8c188-147.3,354.9-13.2,187.7,151c183.4,165.9,34.2,298.7-167.9,149.3
			c-182.3,146.4-349.1,11.8-187.7-151.2C1072.7-2074.9,1221.9-2207.3,1429.2-2058.8z"/>
		<path class="st0" d="M1726.9-1477.3c91.8-73.4,172.2-6.1,90.5,75.9c88.9,83.2,15.4,149.6-82.7,74.6c-90.3,73.3-170.7,5.7-90.5-76
			C1554-1485.9,1627.5-1552.1,1726.9-1477.3z"/>
		<path class="st27" d="M1495.7-1050.3c177.6-145.6,336.1-10.4,178.3,152.4c174.1,167.2,33.2,299-158.5,147.9
			c-172,144.7-330.3,8.4-178.2-153C1158-1069.8,1298.8-1200.5,1495.7-1050.3z"/>
		<path class="st0" d="M1779.3-466.7c86.6-72.8,162.8-4.9,85.8,76.5c84.3,83.8,15,149.7-78,74c-85.2,72.6-161.4,4.4-85.7-76.6
			C1615.8-476.6,1685.1-542.1,1779.3-466.7z"/>
		<path class="st61" d="M1562.3-41.7c167.3-143.9,317.4-7.6,168.9,153.8c164.8,168.6,32.3,299.4-149,146.5
			c-161.6,143-311.5,4.9-168.7-154.7C1243.4-64.7,1375.7-193.7,1562.3-41.7z"/>
		<path class="st0" d="M1831.7,544c81.4-72.1,153.5-3.8,81.1,77c79.6,84.3,14.5,149.8-73.3,73.4c-80,71.9-152,3.1-81-77.3
			C1677.6,532.7,1742.7,467.8,1831.7,544z"/>
		<path class="st62" d="M1628.8,966.8c156.9-142.1,298.6-4.8,159.4,155.2c155.5,170,31.3,299.7-139.6,145.1
			c-151.3,141.2-292.7,1.5-159.3-156.4C1328.7,940.4,1452.5,813.1,1628.8,966.8z"/>
		<path class="st0" d="M1884.2,1554.6c76.3-71.4,144.1-2.6,76.4,77.6c75,84.9,14,149.9-68.6,72.9c-74.9,71.2-142.7,1.7-76.3-78
			C1739.4,1542.1,1800.3,1477.8,1884.2,1554.6z"/>
		<path class="st63" d="M1695.3,1975.4c146.5-140.4,279.9-2,150,156.6c146.2,171.4,30.4,300-130.2,143.7
			c-140.9,139.5-273.9-2-149.8-158.2C1414,1945.5,1529.4,1820,1695.3,1975.4z"/>
		<path class="st0" d="M1936.6,2565.3c71.1-70.7,134.8-1.5,71.7,78.2c70.4,85.5,13.6,150-63.8,72.3c-69.7,70.6-133.3,0.4-71.6-78.6
			C1801.2,2551.4,1857.9,2487.8,1936.6,2565.3z"/>
		<path class="st64" d="M1761.8,2983.9c136.1-138.7,261.2,0.7,140.5,158c136.9,172.7,29.4,300.3-120.7,142.3
			c-130.6,137.8-255.1-5.4-140.3-159.9C1499.4,2950.5,1606.3,2826.8,1761.8,2983.9z"/>
		<path class="st0" d="M1989.1,3575.9c65.9-70,125.5-0.3,67,78.8c65.7,86,13.1,150.1-59.1,71.7c-64.6,69.9-124-0.9-66.9-79.3
			C1863,3560.7,1915.5,3497.7,1989.1,3575.9z"/>
		<path class="st65" d="M1828.4,3992.4c125.8-137,242.4,3.5,131.1,159.5c127.6,174.1,28.5,300.6-111.3,140.9
			c-120.2,136.1-236.3-8.9-130.8-161.6C1584.7,3955.6,1683.2,3833.6,1828.4,3992.4z"/>
		<path class="st0" d="M2041.5,4586.5c60.8-69.4,116.1,0.8,62.2,79.4c61.1,86.6,12.7,150.2-54.4,71.1
			c-59.4,69.2-114.6-2.2-62.2-79.9C1924.8,4570,1973.1,4507.7,2041.5,4586.5z"/>
		<path class="st66" d="M1894.9,5001c115.4-135.2,223.7,6.3,121.7,160.9c118.3,175.5,27.6,301-101.9,139.5
			c-109.8,134.4-217.5-12.4-121.3-163.4C1670.1,4960.7,1760.1,4840.4,1894.9,5001z"/>
		<path class="st0" d="M2094,5597.2c55.6-68.7,106.8,2,57.5,79.9c56.5,87.2,12.2,150.3-49.7,70.5c-54.2,68.5-105.3-3.5-57.5-80.6
			C1986.6,5579.4,2030.7,5517.7,2094,5597.2z"/>
		<path class="st67" d="M1961.4,6009.5c105-133.5,205,9.1,112.2,162.3c109,176.9,26.6,301.3-92.4,138.1
			c-99.5,132.6-198.6-15.8-111.9-165.1C1755.4,5965.8,1837,5847.3,1961.4,6009.5z"/>
		<path class="st0" d="M2146.4,6607.8c50.5-68,97.5,3.1,52.8,80.5c51.8,87.7,11.7,150.4-45,70c-49.1,67.8-95.9-4.8-52.8-81.3
			C2048.4,6588.7,2088.3,6527.6,2146.4,6607.8z"/>
		<path class="st68" d="M2028,7018.1c94.6-131.8,186.2,11.9,102.8,163.7c99.7,178.3,25.7,301.6-83,136.6
			c-89.1,130.9-179.8-19.3-102.4-166.9C1840.7,6970.9,1913.9,6854.1,2028,7018.1z"/>
		<path class="st0" d="M2289.8-2487.8c99.2-74.3,181.7-7.3,92.8,75.5c90.9,82.8,11.2,149.8-89.7,75.4
			c-97.8,74.3-180.3,7.2-92.8-75.5C2107.8-2495.1,2187.5-2562.2,2289.8-2487.8z"/>
		<path class="st5" d="M2031.1-2057c192.6-148.2,355.3-13.9,183.1,151.2c178.3,165.9,24.8,299.7-172.7,150.4
			c-187.1,147.7-349.7,13-183-151.4C1674.9-2072.4,1828.4-2205.8,2031.1-2057z"/>
		<path class="st0" d="M2310.7-1474.3c94.1-74.1,172.4-6.8,88.2,75.7c86.3,83,10.8,149.9-85,75.2c-92.7,74-171,6.6-88.1-75.8
			C2138-1482.1,2213.6-1548.9,2310.7-1474.3z"/>
		<path class="st69" d="M2066-1044.4c182.3-147.3,336.7-12.6,173.7,151.8c169,166.5,23.9,299.9-163.3,149.7
			c-176.8,146.8-331.1,11-173.6-152.4C1728.5-1061.8,1873.5-1194.1,2066-1044.4z"/>
		<path class="st0" d="M2331.6-460.7c88.9-73.8,163.1-6.4,83.5,75.9c81.7,83.2,10.3,150-80.4,75c-87.6,73.7-161.8,6-83.5-76.1
			C2168.2-469.2,2239.6-535.6,2331.6-460.7z"/>
		<path class="st70" d="M2100.9-31.8c172.1-146.4,318.1-11.3,164.3,152.5c159.8,167.1,23,300.2-153.9,149
			c-166.5,145.9-312.5,9.1-164.3-153.4C1782-51.2,1918.7-182.4,2100.9-31.8z"/>
		<path class="st0" d="M2352.6,552.8c83.8-73.5,153.9-6,78.8,76.1c77.1,83.4,9.9,150-75.7,74.8c-82.5,73.4-152.5,5.4-78.8-76.4
			C2198.4,543.8,2265.7,477.7,2352.6,552.8z"/>
		<path class="st24" d="M2135.9,980.7c161.8-145.5,299.5-10,155,153.1c150.6,167.8,22,300.4-144.6,148.4
			c-156.3,145-293.8,7.1-154.9-154.3C1835.6,959.4,1963.9,829.2,2135.9,980.7z"/>
		<path class="st0" d="M2373.5,1566.4c78.7-73.2,144.6-5.6,74.1,76.3c72.5,83.6,9.4,150.1-71,74.6c-77.3,73.2-143.2,4.9-74.1-76.6
			C2228.7,1556.8,2291.8,1491,2373.5,1566.4z"/>
		<path class="st71" d="M2170.8,1993.3c151.5-144.5,280.9-8.7,145.6,153.8c141.3,168.4,21.1,300.7-135.2,147.7
			c-146,144.1-275.2,5.1-145.5-155.3C1889.1,1970,2009.1,1840.9,2170.8,1993.3z"/>
		<path class="st0" d="M2394.4,2579.9c73.6-73,135.3-5.2,69.4,76.5c67.9,83.8,9,150.2-66.3,74.4c-72.2,72.9-133.9,4.3-69.4-76.9
			C2258.9,2569.8,2317.8,2504.3,2394.4,2579.9z"/>
		<path class="st72" d="M2205.7,3005.9c141.2-143.6,262.3-7.4,136.2,154.5c132.1,169.1,20.2,300.9-125.8,147
			c-135.7,143.2-256.6,3.1-136.1-156.3C1942.7,2980.6,2054.3,2852.6,2205.7,3005.9z"/>
		<path class="st0" d="M2415.4,3593.5c68.4-72.7,126-4.8,64.8,76.7c63.3,84,8.5,150.2-61.6,74.2c-67.1,72.6-124.6,3.7-64.7-77.2
			C2289.1,3582.8,2343.9,3517.6,2415.4,3593.5z"/>
		<path class="st73" d="M2240.6,4018.5c130.9-142.7,243.7-6.1,126.9,155.1c122.9,169.7,19.3,301.2-116.5,146.4
			c-125.4,142.3-237.9,1.2-126.7-157.3C1996.3,3991.2,2099.5,3864.2,2240.6,4018.5z"/>
		<path class="st0" d="M2436.3,4607.1c63.3-72.4,116.7-4.4,60.1,76.9c58.7,84.2,8,150.3-57,74c-61.9,72.4-115.3,3.1-60.1-77.5
			C2319.4,4595.7,2370,4530.8,2436.3,4607.1z"/>
		<path class="st73" d="M2275.5,5031c120.6-141.8,225.1-4.8,117.5,155.8c113.6,170.4,18.4,301.4-107.1,145.7
			c-115.2,141.4-219.3-0.8-117.3-158.3C2049.8,5001.8,2144.7,4875.9,2275.5,5031z"/>
		<path class="st0" d="M2457.2,5620.6c58.2-72.1,107.4-4,55.4,77.1c54.1,84.4,7.6,150.4-52.3,73.8c-56.8,72.1-106,2.6-55.4-77.8
			C2349.6,5608.7,2396,5544.1,2457.2,5620.6z"/>
		<path class="st74" d="M2310.5,6043.6c110.3-140.9,206.5-3.5,108.1,156.5c104.4,171,17.4,301.7-97.7,145.1
			c-104.9,140.5-200.7-2.8-107.9-159.3C2103.4,6012.3,2189.9,5887.6,2310.5,6043.6z"/>
		<path class="st0" d="M2478.2,6634.2c53-71.9,98.1-3.6,50.7,77.3c49.5,84.6,7.1,150.4-47.6,73.6c-51.7,71.8-96.7,2-50.7-78.1
			C2379.8,6621.7,2422.1,6557.4,2478.2,6634.2z"/>
		<path class="st57" d="M2345.4,7056.2c100.1-140,187.9-2.1,98.8,157.1c95.2,171.7,16.5,301.9-88.4,144.4
			c-94.6,139.6-182-4.8-98.5-160.3C2156.9,7022.9,2235.1,6899.2,2345.4,7056.2z"/>
		<path class="st0" d="M2905.1-2487.8c101.5-74.4,181.9-7.3,90.5,75.5c88.4,82.7,6.6,149.8-92,75.5c-100.2,74.4-180.6,7.3-90.5-75.5
			C2723.3-2495.1,2805.1-2562.2,2905.1-2487.8z"/>
		<path class="st7" d="M2633.1-2056.3c197.2-148.7,355.7-14.6,178.4,150.9c173.1,165.4,15.5,299.8-177.3,151
			c-191.8,148.6-350.3,14.2-178.4-151.1C2277.3-2071,2434.9-2205,2633.1-2056.3z"/>
		<path class="st0" d="M2894.7-1473.8c96.4-74.5,172.6-7.6,85.8,75.3c83.8,82.5,6.1,149.9-87.4,75.7c-95,74.5-171.3,7.5-85.8-75.4
			C2722.1-1480.9,2799.8-1548.1,2894.7-1473.8z"/>
		<path class="st32" d="M2636.6-1042.2c187-148.6,337.2-14.8,169,150.9c163.9,165.4,14.6,300-168,151.1
			c-181.5,148.6-331.8,13.7-169-151.4C2299.3-1057.4,2448.6-1191,2636.6-1042.2z"/>
		<path class="st0" d="M2884.2-459.9c91.3-74.6,163.4-7.9,81.1,75.1c79.2,82.4,5.7,149.9-82.7,75.8c-89.9,74.7-162,7.6-81.1-75.3
			C2721-466.8,2794.5-534,2884.2-459.9z"/>
		<path class="st45" d="M2640.1-28.1c176.7-148.5,318.6-15,159.7,150.8c154.7,165.3,13.7,300.2-158.7,151.2
			c-171.3,148.5-313.2,13.2-159.7-151.6C2321.4-43.8,2462.4-177,2640.1-28.1z"/>
		<path class="st0" d="M2873.7,554.1c86.1-74.8,154.1-8.3,76.5,75c74.6,82.2,5.2,149.9-78,76c-84.8,74.8-152.7,7.8-76.5-75.2
			C2719.8,547.3,2789.1,480.2,2873.7,554.1z"/>
		<path class="st75" d="M2643.6,986c166.5-148.4,300.1-15.1,150.3,150.7c145.5,165.2,12.8,300.4-149.3,151.3
			c-161,148.4-294.6,12.7-150.3-151.9C2343.4,969.8,2476.1,837,2643.6,986z"/>
		<path class="st0" d="M2863.3,1568.1c81-74.9,144.8-8.6,71.8,74.8c69.9,82.1,4.8,150-73.3,76.2c-79.7,74.9-143.5,8-71.8-75.1
			C2718.6,1561.5,2783.8,1494.3,2863.3,1568.1z"/>
		<path class="st76" d="M2647.1,2000.1c156.2-148.3,281.5-15.3,141,150.6c136.2,165.1,11.9,300.6-140,151.4
			c-150.8,148.3-276.1,12.2-141-152.1C2365.5,1983.4,2489.8,1851,2647.1,2000.1z"/>
		<path class="st0" d="M2852.8,2582c75.9-75,135.5-8.9,67.1,74.6c65.3,81.9,4.3,150-68.7,76.3c-74.5,75.1-134.2,8.1-67.1-75.1
			C2717.4,2575.6,2778.4,2508.4,2852.8,2582z"/>
		<path class="st77" d="M2650.6,3014.2c146-148.2,263-15.5,131.6,150.5c127,165,11,300.7-130.6,151.5
			c-140.5,148.2-257.5,11.7-131.6-152.4C2387.5,2997,2503.6,2865,2650.6,3014.2z"/>
		<path class="st0" d="M2842.3,3596c70.8-75.2,126.2-9.3,62.4,74.5c60.7,81.7,3.9,150-64,76.5c-69.4,75.2-124.9,8.3-62.4-75
			C2716.2,3589.7,2773.1,3522.5,2842.3,3596z"/>
		<path class="st33" d="M2654,4028.3c135.7-148.1,244.4-15.6,122.3,150.4c117.8,164.9,10.1,300.9-121.3,151.5
			c-130.3,148.1-239,11.2-122.3-152.6C2409.6,4010.6,2517.3,3879.1,2654,4028.3z"/>
		<path class="st0" d="M2831.9,4610c65.6-75.3,117-9.6,57.8,74.3c56.1,81.6,3.4,150-59.3,76.7c-64.3,75.4-115.6,8.4-57.8-74.9
			C2715,4603.9,2767.8,4536.6,2831.9,4610z"/>
		<path class="st2" d="M2657.5,5042.4c125.5-148,225.8-15.8,112.9,150.4c108.6,164.8,9.2,301.1-111.9,151.6
			c-120.1,148.1-220.4,10.7-112.9-152.9C2431.6,5024.2,2531,4893.1,2657.5,5042.4z"/>
		<path class="st0" d="M2821.4,5624c60.5-75.4,107.7-9.9,53.1,74.1c51.5,81.4,3,150.1-54.6,76.8c-59.2,75.5-106.3,8.6-53.1-74.8
			C2713.8,5618,2762.4,5550.7,2821.4,5624z"/>
		<path class="st78" d="M2661,6056.5c115.2-147.9,207.3-16,103.6,150.3c99.4,164.7,8.3,301.3-102.6,151.7
			c-109.8,148-201.8,10.2-103.6-153.1C2453.7,6037.8,2544.8,5907.1,2661,6056.5z"/>
		<path class="st0" d="M2810.9,6637.9c55.4-75.6,98.4-10.3,48.4,74c46.9,81.2,2.5,150.1-50,77c-54,75.6-97.1,8.8-48.4-74.7
			C2712.7,6632.1,2757.1,6564.8,2810.9,6637.9z"/>
		<path class="st17" d="M2664.5,7070.6c105-147.8,188.7-16.1,94.3,150.2c90.2,164.7,7.4,301.5-93.2,151.8
			c-99.6,147.9-183.3,9.7-94.2-153.4C2475.7,7051.4,2558.5,6921.1,2664.5,7070.6z"/>
		<path class="st0" d="M3520.5-2487.9c103.8-74.2,182.1-7.3,88.1,75.3c85.8,82.5,1.9,149.5-94.4,75.4
			c-102.5,74.3-180.8,7.4-88.1-75.3C3338.9-2495.1,3422.8-2562.1,3520.5-2487.9z"/>
		<path class="st79" d="M3235.1-2056.7c201.7-148.8,356.1-15.3,173.7,150.3c167.9,164.6,6.1,299.3-182,151.3
			c-196.4,149.2-350.8,15.3-173.7-150.5C2879.7-2070.8,3041.5-2205,3235.1-2056.7z"/>
		<path class="st0" d="M3478.6-1476c98.6-74.7,172.8-8.4,83.4,74.7c81.2,81.9,1.5,149.5-89.7,75.9c-97.3,74.9-171.5,8.3-83.5-74.8
			C3306.3-1482.3,3386-1549.7,3478.6-1476z"/>
		<path class="st80" d="M3207.2-1043.6c191.5-149.6,337.5-16.9,164.3,149.5c158.6,163.8,5.2,299.4-172.6,152.2
			c-186.2,150-332.2,16.2-164.3-150C2870.4-1056.7,3023.8-1191.2,3207.2-1043.6z"/>
		<path class="st0" d="M3436.6-464.1c93.5-75.3,163.5-9.4,78.7,74.2c76.5,81.4,1,149.5-85,76.5c-92.2,75.4-162.2,9.2-78.8-74.4
			C3273.7-469.5,3349.2-537.2,3436.6-464.1z"/>
		<path class="st38" d="M3179.3-30.5c181.2-150.3,318.9-18.6,154.9,148.7c149.4,163,4.4,299.5-163.3,153
			c-175.9,150.7-313.6,17.2-155-149.5C2861-42.6,3006.2-177.3,3179.3-30.5z"/>
		<path class="st0" d="M3394.7,547.8c88.4-75.8,154.2-10.5,74.1,73.7c71.9,80.9,0.6,149.4-80.3,77c-87,76-152.9,10.1-74.1-73.9
			C3241.1,543.3,3312.5,475.2,3394.7,547.8z"/>
		<path class="st76" d="M3151.3,982.7c171-151,300.3-20.2,145.6,147.9c140.2,162.2,3.5,299.6-153.9,153.8
			c-165.6,151.4-295.1,18.2-145.6-149.1C2851.7,971.5,2988.5,836.5,3151.3,982.7z"/>
		<path class="st0" d="M3352.8,1559.7c83.2-76.4,144.8-11.6,69.4,73.1c67.3,80.3,0.1,149.4-75.6,77.5c-81.9,76.5-143.6,11-69.4-73.5
			C3208.5,1556,3275.7,1487.6,3352.8,1559.7z"/>
		<path class="st81" d="M3123.4,1995.8c160.7-151.7,281.7-21.9,136.2,147c130.9,161.3,2.6,299.7-144.5,154.7
			c-155.3,152.1-276.5,19.2-136.3-148.6C2842.3,1985.6,2970.9,1850.4,3123.4,1995.8z"/>
		<path class="st0" d="M3310.9,2571.6c78.1-76.9,135.5-12.6,64.7,72.6c62.6,79.8-0.3,149.4-70.9,78.1c-76.7,77.1-134.2,11.9-64.7-73
			C3175.9,2568.8,3238.9,2500.1,3310.9,2571.6z"/>
		<path class="st48" d="M3095.5,3008.9c150.4-152.4,263.1-23.5,126.8,146.2c121.7,160.5,1.7,299.8-135.1,155.5
			c-145.1,152.9-257.9,20.2-126.9-148.1C2833,2999.7,2953.2,2864.2,3095.5,3008.9z"/>
		<path class="st0" d="M3269,3583.4c72.9-77.5,126.2-13.7,60,72c58,79.3-0.8,149.4-66.2,78.6c-71.6,77.6-124.9,12.8-60-72.6
			C3143.3,3581.6,3202.2,3512.5,3269,3583.4z"/>
		<path class="st82" d="M3067.6,4022c140.2-153.2,244.4-25.2,117.4,145.4c112.5,159.7,0.8,299.9-125.7,156.3
			c-134.8,153.6-239.3,21.1-117.6-147.6C2823.6,4013.8,2935.6,3878.1,3067.6,4022z"/>
		<path class="st0" d="M3227,4595.3c67.8-78,116.9-14.8,55.3,71.5c53.4,78.7-1.2,149.4-61.5,79.2c-66.4,78.2-115.6,13.7-55.3-72.1
			C3110.7,4594.4,3165.4,4524.9,3227,4595.3z"/>
		<path class="st44" d="M3039.6,5035.2c129.9-153.9,225.8-26.8,108,144.5c103.2,158.9-0.1,300-116.4,157.1
			c-124.5,154.3-220.7,22.1-108.2-147.1C2814.3,5027.9,2917.9,4891.9,3039.6,5035.2z"/>
		<path class="st0" d="M3185.1,5607.2c62.6-78.5,107.5-15.8,50.6,71c48.8,78.2-1.7,149.4-56.8,79.7c-61.3,78.7-106.3,14.6-50.6-71.6
			C3078.1,5607.2,3128.6,5537.4,3185.1,5607.2z"/>
		<path class="st83" d="M3011.7,6048.3c119.6-154.6,207.2-28.5,98.7,143.7c94,158.1-1,300.2-107,158
			c-114.2,155.1-202.2,23.1-98.8-146.6C2804.9,6042.1,2900.3,5905.8,3011.7,6048.3z"/>
		<path class="st0" d="M3143.2,6619.1c57.5-79.1,98.2-16.9,45.9,70.4c44.1,77.7-2.1,149.4-52.1,80.2c-56.1,79.2-97,15.5-45.9-71.2
			C3045.5,6620,3091.9,6549.8,3143.2,6619.1z"/>
		<path class="st84" d="M2983.8,7061.4c109.4-155.3,188.6-30.1,89.3,142.9c84.8,157.2-1.8,300.3-97.6,158.8
			c-104,155.8-183.6,24.1-89.5-146.1C2795.6,7056.2,2882.6,6919.7,2983.8,7061.4z"/>
		<path class="st0" d="M4135.8-2488.1c106.1-73.9,182.3-7.3,85.8,74.9c83.2,82-2.8,148.7-96.7,75.1c-104.8,74.1-181,7.5-85.8-74.9
			C3954.5-2495.2,4040.4-2562,4135.8-2488.1z"/>
		<path class="st24" d="M3837.1-2058.3c206.3-148.6,356.4-15.9,168.9,149.4c162.6,163.4-3.3,298-186.7,151.3
			c-201,149.4-351.2,16.3-169-149.6C3482.1-2071.6,3648-2205.9,3837.1-2058.3z"/>
		<path class="st0" d="M4062.2-1480.8c100.9-74.8,172.9-9.1,81,74c78.5,81.1-3.2,148.7-92,76c-99.6,75.1-171.6,9.2-81.1-74.1
			C3890.3-1486.3,3972.1-1553.7,4062.2-1480.8z"/>
		<path class="st79" d="M3777.6-1048.7c196-150.1,337.7-19.1,159.5,147.8c153.3,161.8-4.1,298-177.2,152.9
			c-190.7,151-332.5,18.8-159.6-148.3C3441.3-1059.5,3598.9-1194.7,3777.6-1048.7z"/>
		<path class="st0" d="M3988.6-473.4c95.7-75.8,163.5-10.9,76.3,73.1c73.8,80.2-3.7,148.6-87.2,76.9c-94.4,76-162.2,10.8-76.3-73.2
			C3826.1-477.3,3903.7-545.4,3988.6-473.4z"/>
		<path class="st7" d="M3718.1-39c185.6-151.7,318.9-22.2,150,146.2c144,160.3-5,298.1-167.7,154.4
			c-180.3,152.5-313.8,21.2-150.1-147.1C3400.5-47.4,3549.8-183.5,3718.1-39z"/>
		<path class="st0" d="M3915,533.9c90.5-76.7,154.1-12.7,71.5,72.2c69.2,79.3-4.1,148.6-82.5,77.8c-89.2,77-152.8,12.4-71.6-72.4
			C3761.9,531.6,3835.3,462.8,3915,533.9z"/>
		<path class="st32" d="M3658.6,970.6c175.3-153.2,300.2-25.3,140.6,144.7c134.7,158.7-5.9,298.1-158.3,156
			c-170,154.1-295.1,23.7-140.7-145.8C3359.7,964.7,3500.6,827.7,3658.6,970.6z"/>
		<path class="st0" d="M3841.5,1541.2c85.3-77.7,144.7-14.5,66.8,71.2c64.5,78.4-4.6,148.6-77.8,78.7c-84,77.9-143.4,14.1-66.9-71.6
			C3697.7,1540.6,3766.9,1471.1,3841.5,1541.2z"/>
		<path class="st85" d="M3599.1,1980.3c165-154.8,281.4-28.4,131.1,143.1c125.4,157.2-6.8,298.1-148.8,157.6
			c-159.6,155.6-276.4,26.1-131.3-144.6C3319,1976.8,3451.5,1838.9,3599.1,1980.3z"/>
		<path class="st0" d="M3767.9,2548.5c80.1-78.6,135.3-16.3,62.1,70.3c59.8,77.5-5,148.5-73,79.6c-78.8,78.9-134,15.7-62.1-70.8
			C3633.5,2549.5,3698.5,2479.4,3767.9,2548.5z"/>
		<path class="st86" d="M3539.6,2990c154.6-156.3,262.6-31.6,121.7,141.5c116.1,155.6-7.6,298.2-139.4,159.1
			c-149.3,157.1-257.7,28.6-121.9-143.4C3278.2,2988.9,3402.4,2850.1,3539.6,2990z"/>
		<path class="st0" d="M3694.3,3555.8c74.9-79.6,125.8-18.1,57.3,69.4c55.1,76.6-5.5,148.5-68.3,80.5
			c-73.6,79.8-124.6,17.4-57.4-69.9C3569.3,3558.5,3630.1,3487.6,3694.3,3555.8z"/>
		<path class="st53" d="M3480.2,3999.6c144.3-157.8,243.9-34.7,112.2,139.9c106.8,154.1-8.5,298.2-129.9,160.7
			c-138.9,158.7-239,31.1-112.5-142.1C3237.4,4001,3353.2,3861.3,3480.2,3999.6z"/>
		<path class="st0" d="M3620.7,4563.1c69.8-80.5,116.4-19.9,52.6,68.5c50.5,75.7-5.9,148.4-63.5,81.5c-68.4,80.8-115.2,19-52.7-69.1
			C3505.1,4567.4,3561.7,4495.9,3620.7,4563.1z"/>
		<path class="st63" d="M3420.7,5009.3c134-159.4,225.1-37.8,102.8,138.4c97.5,152.5-9.4,298.2-120.5,162.3
			c-128.6,160.2-220.3,33.5-103.1-140.9C3196.6,5013.1,3304.1,4872.5,3420.7,5009.3z"/>
		<path class="st0" d="M3547.1,5570.4c64.6-81.5,107-21.8,47.8,67.6c45.8,74.8-6.4,148.4-58.8,82.4c-63.2,81.7-105.9,20.6-47.9-68.3
			C3440.9,5576.4,3493.3,5504.1,3547.1,5570.4z"/>
		<path class="st40" d="M3361.2,6018.9c123.6-160.9,206.3-40.9,93.3,136.8c88.1,150.9-10.3,298.3-111,163.9
			c-118.2,161.8-201.7,36-93.6-139.6C3155.8,6025.2,3255,5883.7,3361.2,6018.9z"/>
		<path class="st0" d="M3473.5,6577.7c59.4-82.4,97.6-23.6,43.1,66.7c41.1,73.9-6.8,148.3-54,83.3c-58,82.7-96.5,22.3-43.2-67.5
			C3376.7,6585.3,3424.9,6512.4,3473.5,6577.7z"/>
		<path class="st87" d="M3301.7,7028.6c113.3-162.5,187.6-44.1,83.8,135.2c78.8,149.4-11.2,298.3-101.6,165.4
			c-107.9,163.3-183,38.4-84.2-138.4C3115,7037.3,3205.8,6894.9,3301.7,7028.6z"/>
		<path class="st0" d="M4751.2-2488.3c108.4-73.3,182.5-7.3,83.4,74.3c80.5,81.3-7.6,147.6-99.1,74.6
			c-107.1,73.7-181.3,7.6-83.4-74.3C4570-2495.4,4658.1-2561.7,4751.2-2488.3z"/>
		<path class="st88" d="M4438.9-2061.1c210.9-148,356.7-16.5,164.1,148c157.2,161.8-12.8,296-191.3,150.9
			c-205.7,149.3-351.6,17.4-164.2-148.2C4084.4-2073.6,4254.5-2207.5,4438.9-2061.1z"/>
		<path class="st0" d="M4645.5-1488.1c103.2-74.7,173-9.8,78.6,73c75.8,80-8,147.5-94.3,75.9c-101.9,75-171.7,10-78.6-73.1
			C4473.9-1492.8,4557.7-1560.1,4645.5-1488.1z"/>
		<path class="st22" d="M4347.5-1057.4c200.4-150.4,337.7-21.1,154.5,145.7c147.8,159.5-13.6,295.9-181.7,153.2
			c-195.2,151.6-332.7,21.3-154.6-146.2C4012-1066,4173.6-1201.4,4347.5-1057.4z"/>
		<path class="st0" d="M4539.9-487.9c97.9-76,163.4-12.4,73.8,71.8c71,78.8-8.5,147.5-89.5,77.2c-96.6,76.4-162.2,12.4-73.8-71.9
			C4377.8-490.2,4457.4-558.5,4539.9-487.9z"/>
		<path class="st89" d="M4256.2-53.7c190-152.7,318.7-25.8,145,143.4c138.4,157.2-14.5,295.9-172.2,155.5
			c-184.7,154-313.8,25.2-145.1-144.3C3939.5-58.4,4092.8-195.4,4256.2-53.7z"/>
		<path class="st0" d="M4434.2,512.4c92.6-77.4,153.9-14.9,68.9,70.5c66.3,77.5-8.9,147.4-84.7,78.4c-91.3,77.8-152.7,14.7-69-70.7
			C4281.7,512.4,4357,443.1,4434.2,512.4z"/>
		<path class="st90" d="M4164.8,950c179.5-155.1,299.7-30.4,135.4,141.1c129,154.9-15.4,295.9-162.6,157.8
			c-174.2,156.3-294.8,29.1-135.6-142.3C3867.1,949.2,4011.9,810.7,4164.8,950z"/>
		<path class="st0" d="M4328.6,1512.6c87.4-78.8,144.3-17.5,64.1,69.2c61.6,76.2-9.4,147.3-79.8,79.7c-86,79.1-143.1,17.1-64.2-69.5
			C4185.6,1515,4256.6,1444.6,4328.6,1512.6z"/>
		<path class="st91" d="M4073.5,1953.7c169.1-157.5,280.7-35,125.8,138.8c119.5,152.6-16.2,295.8-153,160.1
			c-163.7,158.7-275.9,33.1-126.1-140.3C3794.7,1956.8,3931,1816.7,4073.5,1953.7z"/>
		<path class="st0" d="M4222.9,2512.8c82.1-80.1,134.8-20,59.3,67.9c56.8,75-9.8,147.2-75,81c-80.8,80.5-133.6,19.5-59.4-68.3
			C4089.5,2517.6,4156.3,2446.2,4222.9,2512.8z"/>
		<path class="st37" d="M3982.1,2957.4c158.6-159.8,261.7-39.6,116.2,136.4c110.1,150.3-17.1,295.8-143.4,162.4
			c-153.2,161-257,37-116.6-138.3C3722.2,2964.4,3850.2,2822.8,3982.1,2957.4z"/>
		<path class="st0" d="M4117.3,3513c76.8-81.5,125.2-22.6,54.5,66.6c52.1,73.7-10.3,147.1-70.2,82.3
			c-75.5,81.8-124.1,21.9-54.6-67.1C3993.3,3520.2,4055.9,3447.8,4117.3,3513z"/>
		<path class="st92" d="M3890.8,3961c148.2-162.2,242.7-44.2,106.6,134.1c100.7,148-18,295.7-133.8,164.7
			c-142.7,163.4-238.1,40.9-107-136.3C3649.8,3972,3769.3,3828.8,3890.8,3961z"/>
		<path class="st0" d="M4011.7,4513.3c71.6-82.8,115.6-25.1,49.7,65.3c47.3,72.4-10.7,147.1-65.4,83.6
			c-70.2,83.2-114.5,24.2-49.8-65.9C3897.2,4522.8,3955.5,4449.4,4011.7,4513.3z"/>
		<path class="st93" d="M3799.4,4964.7c137.7-164.5,223.7-48.8,97,131.8c91.3,145.7-18.9,295.7-124.2,167.1
			c-132.3,165.8-219.2,44.9-97.5-134.3C3577.3,4979.7,3688.4,4834.8,3799.4,4964.7z"/>
		<path class="st0" d="M3906,5513.5c66.3-84.2,106.1-27.7,44.9,64.1c42.6,71.2-11.2,147-60.6,84.9c-64.9,84.6-105,26.6-45-64.7
			C3801.1,5525.4,3855.2,5451,3906,5513.5z"/>
		<path class="st94" d="M3708.1,5968.4c127.2-166.9,204.7-53.4,87.5,129.5c81.8,143.4-19.8,295.7-114.7,169.4
			c-121.8,168.1-200.3,48.8-88-132.3C3504.9,5987.3,3607.6,5840.9,3708.1,5968.4z"/>
		<path class="st0" d="M3800.4,6513.7c61-85.6,96.5-30.2,40,62.8c37.8,69.9-11.6,146.9-55.8,86.1c-59.7,85.9-95.5,29-40.2-63.5
			C3705,6528,3754.8,6452.6,3800.4,6513.7z"/>
		<path class="st95" d="M3616.8,6972.1c116.8-169.2,185.6-58,77.9,127.2c72.4,141.1-20.6,295.6-105.1,171.7
			c-111.3,170.5-181.4,52.7-78.5-130.4C3432.5,6994.9,3526.7,6846.9,3616.8,6972.1z"/>
		<path class="st0" d="M5366.5-2488.7c110.8-72.6,182.8-7.2,81,73.6c77.8,80.4-12.4,146.1-101.5,73.9c-109.5,73.1-181.5,7.7-81-73.6
			C5185.6-2495.7,5275.8-2561.4,5366.5-2488.7z"/>
		<path class="st88" d="M5040.4-2065c215.5-147.1,357-17.1,159.2,146.3c151.7,159.7-22.4,293.2-196,150
			c-210.3,148.7-351.9,18.4-159.3-146.5C4686.5-2076.7,4860.8-2209.8,5040.4-2065z"/>
		<path class="st0" d="M5228.2-1498c105.5-74.4,173-10.5,76,71.9c73,78.8-12.9,146-96.6,75.6c-104.2,74.8-171.8,10.8-76.1-72
			C5057-1501.9,5142.9-1568.9,5228.2-1498z"/>
		<path class="st26" d="M4916.8-1069.8c204.9-150.2,337.6-23.2,149.4,143.2c142.1,156.7-23.3,293.1-186.3,153.1
			c-199.6,151.9-332.7,23.7-149.6-143.8C4582.1-1076.1,4747.8-1211.5,4916.8-1069.8z"/>
		<path class="st0" d="M5090-507.4c100.1-76.1,163.3-13.8,71.1,70.3c68.2,77.2-13.3,145.9-91.7,77.2
			c-98.8,76.6-162.1,13.9-71.2-70.4C4928.5-508.1,5010.1-576.5,5090-507.4z"/>
		<path class="st96" d="M4793.1-74.5c194.2-153.4,318.3-29.3,139.7,140.2c132.6,153.6-24.2,293-176.5,156.2
			c-189,155.1-313.4,29.1-139.9-141.1C4477.6-75.5,4634.8-213.1,4793.1-74.5z"/>
		<path class="st0" d="M4951.8,483.3c94.7-77.9,153.5-17.1,66.2,68.6c63.3,75.5-13.8,145.8-86.8,78.9c-93.4,78.4-152.3,17-66.3-68.9
			C4800,485.6,4877.2,415.9,4951.8,483.3z"/>
		<path class="st53" d="M4669.4,920.7c183.6-156.6,298.9-35.4,129.9,137.1c123,150.6-25,292.9-166.8,159.2
			c-178.3,158.2-294.2,34.5-130.2-138.3C4373.1,925.1,4521.8,785.3,4669.4,920.7z"/>
		<path class="st0" d="M4813.5,1473.9c89.4-79.7,143.8-20.4,61.3,66.9c58.5,73.9-14.2,145.7-81.9,80.5
			c-88,80.1-142.6,20.1-61.4-67.3C4671.5,1479.4,4744.4,1408.3,4813.5,1473.9z"/>
		<path class="st97" d="M4545.7,1915.9c173-159.8,279.6-41.5,120.2,134.1c113.4,147.6-25.9,292.7-157,162.3
			c-167.6,161.4-275,39.9-120.6-135.6C4268.7,1925.7,4408.8,1783.7,4545.7,1915.9z"/>
		<path class="st0" d="M4675.3,2464.6c84-81.5,134-23.7,56.4,65.3c53.7,72.3-14.7,145.6-77,82.2c-82.6,81.9-132.9,23.2-56.5-65.7
			C4542.9,2473.1,4611.5,2400.7,4675.3,2464.6z"/>
		<path class="st98" d="M4422,2911.1c162.4-163,260.2-47.6,110.4,131c103.8,144.5-26.8,292.6-147.2,165.3
			c-156.9,164.6-255.8,45.4-110.9-132.9C4164.2,2926.3,4295.8,2782.1,4422,2911.1z"/>
		<path class="st0" d="M4537.1,3455.2c78.6-83.2,124.3-27,51.5,63.6c48.8,70.6-15.1,145.4-72.1,83.9
			c-77.2,83.7-123.2,26.4-51.6-64.1C4414.4,3466.9,4478.7,3393.1,4537.1,3455.2z"/>
		<path class="st28" d="M4298.4,3906.3c151.7-166.1,240.9-53.6,100.7,127.9c94.2,141.5-27.7,292.5-137.5,168.4
			c-146.3,167.7-236.6,50.8-101.2-130.1C4059.8,3927,4182.7,3780.5,4298.4,3906.3z"/>
		<path class="st0" d="M4398.8,4445.9c73.2-85,114.5-30.2,46.6,62c44,69-15.6,145.3-67.1,85.5c-71.9,85.4-113.5,29.5-46.7-62.6
			C4285.9,4460.7,4345.8,4385.5,4398.8,4445.9z"/>
		<path class="st82" d="M4174.7,4901.5c141.1-169.3,221.5-59.7,90.9,124.9c84.6,138.5-28.5,292.4-127.7,171.5
			c-135.6,170.9-217.3,56.2-91.5-127.4C3955.3,4927.6,4069.7,4778.9,4174.7,4901.5z"/>
		<path class="st0" d="M4260.6,5436.5c67.9-86.8,104.8-33.5,41.7,60.3c39.1,67.4-16,145.2-62.2,87.2c-66.5,87.2-103.8,32.6-41.8-61
			C4157.4,5454.4,4212.9,5377.9,4260.6,5436.5z"/>
		<path class="st97" d="M4051,5896.7c130.5-172.5,202.2-65.8,81.1,121.8c75,135.5-29.4,292.3-118,174.5
			c-125,174.1-198.1,61.6-81.9-124.7C3850.8,5928.2,3956.7,5777.2,4051,5896.7z"/>
		<path class="st0" d="M4122.4,6427.1c62.5-88.5,95-36.8,36.7,58.7c34.3,65.7-16.5,145.1-57.3,88.8c-61.1,89-94.1,35.7-37-59.4
			C4028.8,6448.2,4080.1,6370.4,4122.4,6427.1z"/>
		<path class="st16" d="M3927.3,6892c119.8-175.6,182.8-71.9,71.4,118.8c65.4,132.5-30.3,292.2-108.2,177.6
			c-114.3,177.3-178.9,67-72.2-121.9C3746.4,6928.8,3843.7,6775.6,3927.3,6892z"/>
		<path class="st0" d="M5981.8-2489.1c113.2-71.7,183-7.2,78.5,72.6c75.1,79.3-17.4,144.3-104,73.1c-112,72.3-181.7,7.7-78.5-72.6
			C5801.1-2496,5893.5-2560.9,5981.8-2489.1z"/>
		<path class="st99" d="M5641.7-2070.1c220.2-145.7,357.2-17.6,154.2,144.2c146.1,157.2-32.3,289.7-200.8,148.9
			c-215,147.8-352.1,19.3-154.2-144.4C5288.4-2081,5467-2213,5641.7-2070.1z"/>
		<path class="st0" d="M5810.2-1510.6c107.8-73.9,173-11.2,73.4,70.6c70.1,77.3-17.8,144.1-99,75.1
			c-106.4,74.5-171.8,11.6-73.5-70.7C5639.5-1513.6,5727.5-1580.2,5810.2-1510.6z"/>
		<path class="st100" d="M5485.1-1085.8c209.3-149.8,337.4-25.2,144.2,140.4c136.3,153.5-33.2,289.5-190.8,152.7
			c-204.1,151.8-332.5,26.2-144.3-140.9C5151.4-1089.9,5321.2-1224.8,5485.1-1085.8z"/>
		<path class="st0" d="M5638.7-532c102.3-76.1,163-15.2,68.4,68.6c65.2,75.3-18.3,144-93.9,77.1c-100.9,76.6-161.8,15.4-68.5-68.7
			C5477.9-531.2,5561.5-599.5,5638.7-532z"/>
		<path class="st78" d="M5328.4-101.5c198.5-153.8,317.6-32.8,134.2,136.6c126.5,149.7-34.1,289.3-180.8,156.5
			c-193.2,155.8-312.9,33-134.5-137.5C5014.4-98.7,5175.5-236.6,5328.4-101.5z"/>
		<path class="st0" d="M5467.2,446.6c96.8-78.3,153-19.3,63.4,66.5c60.2,73.3-18.7,143.8-88.9,79.2c-95.4,78.8-151.9,19.3-63.5-66.8
			C5316.3,451.3,5395.4,381.3,5467.2,446.6z"/>
		<path class="st101" d="M5171.8,882.7c187.6-157.8,297.8-40.4,124.2,132.8c116.7,145.9-34.9,289.1-170.9,160.3
			c-182.3,159.7-293.2,39.9-124.6-134C4877.4,892.4,5029.7,751.6,5171.8,882.7z"/>
		<path class="st0" d="M5295.6,1425.1c91.3-80.4,143.1-23.3,58.3,64.5c55.3,71.3-19.2,143.7-83.9,81.2
			c-89.9,81-141.9,23.1-58.4-64.9C5154.7,1433.7,5229.4,1362,5295.6,1425.1z"/>
		<path class="st102" d="M5015.2,1867c176.8-161.8,278-47.9,114.2,129c106.9,142.1-35.8,288.9-160.9,164.1
			c-171.4,163.7-273.6,46.8-114.7-130.5C4740.3,1883.5,4884,1739.9,5015.2,1867z"/>
		<path class="st0" d="M5124.1,2403.7c85.8-82.6,133.1-27.3,53.3,62.5c50.3,69.3-19.7,143.5-78.8,83.2c-84.4,83.1-132,27-53.4-62.9
			C4993.1,2416.1,5063.4,2342.8,5124.1,2403.7z"/>
		<path class="st103" d="M4858.5,2851.2c165.9-165.8,258.2-55.5,104.3,125.2c97.1,138.4-36.7,288.7-150.9,167.9
			c-160.4,167.7-254,53.7-104.8-127.1C4603.3,2874.6,4738.3,2728.1,4858.5,2851.2z"/>
		<path class="st0" d="M4952.6,3382.3c80.3-84.8,123.1-31.3,48.3,60.5c45.4,67.3-20.1,143.4-73.8,85.2
			c-78.9,85.3-122.1,30.8-48.4-61C4831.5,3398.5,4897.4,3323.5,4952.6,3382.3z"/>
		<path class="st47" d="M4701.9,3835.4c155.1-169.7,238.4-63.1,94.3,121.4c87.2,134.6-37.6,288.5-140.9,171.7
			c-149.5,171.7-234.4,60.5-95-123.6C4466.3,3865.8,4592.5,3716.3,4701.9,3835.4z"/>
		<path class="st0" d="M4781,4360.8c74.8-87,113.1-35.4,43.2,58.4c40.4,65.3-20.6,143.2-68.8,87.3c-73.4,87.5-112.1,34.7-43.4-59
			C4669.9,4380.9,4731.3,4304.2,4781,4360.8z"/>
		<path class="st75" d="M4545.2,4819.7c144.2-173.7,218.6-70.6,84.3,117.6c77.4,130.9-38.4,288.4-130.9,175.5
			c-138.6,175.7-214.7,67.4-85.1-120.1C4329.3,4856.9,4446.8,4704.6,4545.2,4819.7z"/>
		<path class="st0" d="M4609.5,5339.4c69.3-89.1,103.1-39.4,38.2,56.4c35.5,63.3-21.1,143.1-63.7,89.3
			c-67.9,89.7-102.2,38.5-38.4-57.1C4508.3,5363.4,4565.3,5285,4609.5,5339.4z"/>
		<path class="st6" d="M4388.6,5803.9c133.3-177.7,198.8-78.2,74.3,113.8c67.6,127.1-39.3,288.2-121,179.3
			c-127.8,179.7-195.1,74.3-75.2-116.6C4192.2,5848,4301,5692.8,4388.6,5803.9z"/>
		<path class="st0" d="M4438,6318c63.8-91.3,93.1-43.4,33.2,54.4c30.5,61.3-21.5,142.9-58.7,91.3c-62.4,91.9-92.3,42.4-33.4-55.1
			C4346.7,6345.8,4399.3,6265.7,4438,6318z"/>
		<path class="st35" d="M4232,6788.2c122.4-181.7,179-85.8,64.3,110c57.8,123.4-40.2,288-111,183.1
			c-116.9,183.7-175.5,81.2-65.3-113.2C4055.2,6839.2,4155.3,6681.1,4232,6788.2z"/>
		<path class="st0" d="M6597-2489.7c115.7-70.6,183.2-7.1,75.9,71.5c72.2,78.1-22.5,142.1-106.5,72c-114.4,71.3-181.9,7.8-75.9-71.5
			C6416.6-2496.4,6511.2-2560.4,6597-2489.7z"/>
		<path class="st35" d="M6242.7-2076.3c225-144.1,357.3-18.1,149,141.8c140.3,154.4-42.4,285.5-205.7,147.3
			c-219.8,146.6-352.3,20.2-149-142C5890-2086.3,6072.9-2217,6242.7-2076.3z"/>
		<path class="st0" d="M6391.3-1525.7c110.1-73.2,172.9-11.9,70.7,69.1c67.1,75.7-22.9,141.9-101.4,74.4
			c-108.8,73.9-171.7,12.3-70.8-69.2C6221.1-1527.8,6311.2-1593.8,6391.3-1525.7z"/>
		<path class="st75" d="M6052.3-1105.5c213.8-148.9,337-27.2,138.7,137.2c130.2,149.9-43.3,285.2-195.4,151.9
			c-208.6,151.3-332.2,28.6-138.9-137.7C5719.7-1107.2,5893.7-1241.4,6052.3-1105.5z"/>
		<path class="st0" d="M6185.6-561.7c104.4-75.8,162.7-16.6,65.5,66.7c62,73.3-23.4,141.7-96.2,76.8
			c-103.1,76.5-161.5,16.9-65.6-66.9C6025.6-559.2,6111.2-627.3,6185.6-561.7z"/>
		<path class="st104" d="M5861.9-134.7C6064.6-288.4,6178.6-171,5990.3-2c120.1,145.3-44.2,284.9-185.2,156.4
			c-197.3,156.1-312,36.9-128.8-133.5C5549.4-128.1,5714.5-265.9,5861.9-134.7z"/>
		<path class="st0" d="M5979.9,402.3c98.8-78.4,152.4-21.4,60.4,64.3c56.9,70.9-23.9,141.5-91,79.2c-97.4,79-151.3,21.5-60.5-64.6
			C5830.1,409.3,5911.2,339.3,5979.9,402.3z"/>
		<path class="st60" d="M5671.4,836.1c191.6-158.5,296.4-45.3,118.2,128.1c110.1,140.8-45.1,284.6-174.9,161
			c-186.1,160.9-291.9,45.2-118.7-129.3C5379.2,851.1,5535.3,709.7,5671.4,836.1z"/>
		<path class="st0" d="M5774.2,1366.3c93.2-81,142.1-26.2,55.2,61.9c51.9,68.6-24.3,141.3-85.8,81.6c-91.8,81.6-141,26.1-55.3-62.2
			C5634.6,1377.9,5711.1,1305.9,5774.2,1366.3z"/>
		<path class="st16" d="M5481,1806.9c180.4-163.4,276.1-54.4,108,123.6c100,136.3-46,284.3-164.7,165.5
			c-174.9,165.7-271.8,53.6-108.5-125.1C5208.9,1830.2,5356,1685.3,5481,1806.9z"/>
		<path class="st0" d="M5568.5,2330.3c87.5-83.6,131.9-30.9,50,59.5c46.8,66.2-24.8,141.1-80.6,84c-86.1,84.2-130.8,30.7-50.2-59.9
			C5439.2,2346.5,5511.1,2272.4,5568.5,2330.3z"/>
		<path class="st100" d="M5290.6,2777.7c169.3-168.2,255.7-63.4,97.7,119c89.9,131.8-46.9,284.1-154.4,170.1
			c-163.8,170.5-251.6,61.9-98.4-120.9C5038.6,2809.3,5176.8,2660.9,5290.6,2777.7z"/>
		<path class="st0" d="M5362.8,3294.3c81.9-86.2,121.6-35.7,44.8,57.1c41.7,63.8-25.3,140.9-75.5,86.4
			c-80.4,86.8-120.6,35.3-45.1-57.6C5243.7,3315.1,5311.1,3239,5362.8,3294.3z"/>
		<path class="st72" d="M5100.2,3748.4c158.2-173,235.4-72.5,87.5,114.5c79.9,127.3-47.7,283.8-144.2,174.6
			c-152.6,175.3-231.5,70.3-88.3-116.7C4868.3,3788.4,4997.6,3636.4,5100.2,3748.4z"/>
		<path class="st0" d="M5157.1,4258.3c76.2-88.8,111.3-40.5,39.7,54.7c36.6,61.5-25.8,140.8-70.3,88.8
			c-74.8,89.4-110.4,39.9-39.9-55.3C5048.2,4283.6,5111,4205.6,5157.1,4258.3z"/>
		<path class="st82" d="M4909.8,4719.2c147-177.8,215.1-81.5,77.2,109.9c69.8,122.8-48.6,283.6-133.9,179.2
			c-141.4,180.1-211.4,78.6-78.2-112.4C4698,4767.6,4818.4,4612,4909.8,4719.2z"/>
		<path class="st0" d="M4951.4,5222.2c70.5-91.3,101-45.2,34.5,52.3c31.5,59.1-26.2,140.6-65.1,91.2c-69.1,92-100.2,44.5-34.8-53
			C4852.7,5252.2,4911,5172.1,4951.4,5222.2z"/>
		<path class="st105" d="M4719.4,5690c135.8-182.6,194.7-90.6,67,105.4c59.7,118.3-49.6,283.3-123.6,183.7
			c-130.2,184.9-191.3,87-68-108.2C4527.7,5746.7,4639.2,5587.6,4719.4,5690z"/>
		<path class="st0" d="M4745.8,6186.2c64.9-93.9,90.8-50,29.3,49.9c26.4,56.7-26.7,140.4-59.9,93.6c-63.5,94.5-90,49.1-29.6-50.7
			C4657.2,6220.8,4711,6138.7,4745.8,6186.2z"/>
		<path class="st54" d="M4529.1,6660.7c124.7-187.4,174.4-99.6,56.7,100.8c49.6,113.9-50.5,283.1-113.4,188.3
			c-119.1,189.7-171.2,95.4-57.9-104C4357.4,6725.9,4460,6563.2,4529.1,6660.7z"/>
		<path class="st0" d="M7212.2-2490.3c118.3-69.4,183.4-7,73.3,70.2c69.3,76.6-27.7,139.5-109.1,70.8c-117,70.2-182.1,7.8-73.3-70.2
			C7032-2496.9,7129-2559.8,7212.2-2490.3z"/>
		<path class="st85" d="M6843.2-2083.7c229.9-142,357.5-18.6,143.6,138.9c134.2,151.1-52.9,280.5-210.6,145.4
			c-224.6,144.9-352.4,21.1-143.7-139.1C6491.2-2092.8,6678.5-2221.8,6843.2-2083.7z"/>
		<path class="st0" d="M6971.3-1543.4c112.5-72.4,172.8-12.5,67.9,67.4c64,73.8-28.2,139.3-103.8,73.6
			c-111.1,73.1-171.6,13.1-68-67.5C6801.7-1544.6,6894-1609.9,6971.3-1543.4z"/>
		<path class="st106" d="M6618-1128.8c218.4-147.7,336.5-29.2,133,133.6c123.9,145.8-53.8,280.1-200.1,150.7
			c-213.1,150.5-331.7,30.9-133.3-134.2C6286.8-1128.2,6464.9-1261.3,6618-1128.8z"/>
		<path class="st0" d="M6730.4-596.5c106.6-75.4,162.2-18,62.6,64.6c58.8,71.1-28.7,139-98.4,76.3c-105.3,76.1-161,18.4-62.7-64.8
			C6571.3-592.4,6658.9-660,6730.4-596.5z"/>
		<path class="st23" d="M6392.9-174c207-153.3,315.6-39.7,122.5,128.3c113.5,140.6-54.6,279.7-189.5,156
			c-201.5,156.1-311,40.7-122.8-129.2C6082.4-163.5,6251.3-300.9,6392.9-174z"/>
		<path class="st0" d="M6489.6,350.5c100.8-78.4,151.6-23.5,57.2,61.9c53.5,68.3-29.1,138.8-93.1,79.1
			c-99.4,79.1-150.5,23.7-57.4-62.1C6341,359.8,6423.9,289.9,6489.6,350.5z"/>
		<path class="st107" d="M6167.8,780.8c195.5-159,294.6-50.3,111.9,123c103.1,135.3-55.5,279.4-178.9,161.3
			c-190,161.7-290.2,50.5-112.4-124.2C5878,801.1,6037.8,659.5,6167.8,780.8z"/>
		<path class="st0" d="M6248.7,1297.4c95-81.4,141-29.1,51.9,59.1c48.3,65.6-29.6,138.6-87.8,81.9c-93.6,82.1-140,29.1-52-59.4
			C6110.6,1312.1,6188.9,1239.8,6248.7,1297.4z"/>
		<path class="st69" d="M5942.7,1735.6c184-164.6,273.7-60.8,101.3,117.8c92.7,130.1-56.4,279-168.3,166.6
			c-178.4,167.3-269.5,60.3-102-119.3C5673.6,1765.7,5824.2,1619.9,5942.7,1735.6z"/>
		<path class="st0" d="M6007.8,2244.3c89.2-84.4,130.4-34.6,46.5,56.3c43,62.9-30.1,138.4-82.4,84.7
			c-87.8,85.1-129.4,34.4-46.7-56.8C5880.3,2264.3,5953.8,2189.7,6007.8,2244.3z"/>
		<path class="st98" d="M5717.5,2690.5c172.5-170.3,252.7-71.3,90.7,112.5c82.3,124.8-57.4,278.7-157.8,171.9
			c-166.9,172.9-248.8,70.2-91.6-114.3C5469.2,2730.4,5610.6,2580.3,5717.5,2690.5z"/>
		<path class="st0" d="M5766.9,3191.2c83.3-87.4,119.8-40.1,41.2,53.6c37.7,60.1-30.6,138.1-77.1,87.4
			c-81.9,88.1-118.9,39.7-41.4-54.1C5649.9,3216.5,5718.8,3139.6,5766.9,3191.2z"/>
		<path class="st54" d="M5492.4,3645.3c161.1-175.9,231.7-81.9,80.2,107.2c72,119.6-58.3,278.4-147.2,177.2
			c-155.4,178.5-228.1,80-81.2-109.4C5264.8,3695,5397,3540.7,5492.4,3645.3z"/>
		<path class="st0" d="M5526,4138.1c77.5-90.4,109.2-45.6,35.9,50.8c32.5,57.4-31.1,137.9-71.7,90.2c-76.1,91.1-108.4,45-36.1-51.4
			C5419.6,4168.8,5483.7,4089.5,5526,4138.1z"/>
		<path class="st1" d="M5267.3,4600.1c149.6-181.5,210.8-92.4,69.6,101.9c61.6,114.4-59.2,278-136.6,182.4
			c-143.9,184.1-207.4,89.8-70.7-104.4C5060.4,4659.7,5183.4,4501.2,5267.3,4600.1z"/>
		<path class="st0" d="M5285.1,5085c71.7-93.4,98.6-51.1,30.5,48c27.2,54.7-31.6,137.7-66.4,93c-70.2,94.1-97.8,50.4-30.8-48.7
			C5189.2,5121,5248.7,5039.4,5285.1,5085z"/>
		<path class="st68" d="M5042.2,5554.9c138.1-187.1,189.8-102.9,59,96.6c51.1,109.2-60.1,277.7-126.1,187.7
			c-132.4,189.8-186.7,99.7-60.3-99.4C4856,5624.3,4969.8,5461.6,5042.2,5554.9z"/>
		<path class="st0" d="M5044.2,6031.9c65.8-96.3,88-56.6,25.2,45.2c22,51.9-32.1,137.5-61,95.7c-64.4,97-87.3,55.7-25.5-46
			C4958.9,6073.2,5013.6,5989.3,5044.2,6031.9z"/>
		<path class="st93" d="M4817.1,6509.7c126.5-192.7,168.8-113.4,48.5,91.3c40.7,104-61.1,277.4-115.5,193
			c-120.9,195.4-166,109.5-49.9-94.5C4651.5,6589,4756.2,6422,4817.1,6509.7z"/>
		<path class="st0" d="M7827.4-2491c121-67.9,183.6-6.9,70.5,68.7c66.2,74.9-33.1,136.6-111.8,69.4c-119.6,68.8-182.3,7.8-70.5-68.7
			C7647.5-2497.4,7746.8-2559.1,7827.4-2491z"/>
		<path class="st26" d="M7443.1-2092.2c234.9-139.6,357.6-19,138,135.7c128,147.4-63.7,274.8-215.7,143.1
			c-229.6,142.9-352.5,21.9-138.1-135.9C7091.9-2100.4,7283.8-2227.3,7443.1-2092.2z"/>
		<path class="st0" d="M7550.1-1563.7c114.9-71.4,172.7-13.1,65,65.5c60.8,71.8-33.6,136.3-106.3,72.5
			c-113.6,72.2-171.4,13.8-65-65.6C7381.1-1564,7475.6-1628.4,7550.1-1563.7z"/>
		<path class="st108" d="M7182.2-1155.8c223.1-146.1,335.9-31.1,127.1,129.7c117.3,141.4-64.6,274.3-204.8,149.1
			c-217.7,149.3-331.1,33.2-127.4-130.2C6852.4-1152.7,7034.8-1284.6,7182.2-1155.8z"/>
		<path class="st0" d="M7272.9-636.3c108.9-74.8,161.7-19.4,59.5,62.4c55.4,68.7-34.1,136-100.7,75.7
			c-107.5,75.6-160.5,19.9-59.6-62.6C7114.7-630.6,7204.4-697.6,7272.9-636.3z"/>
		<path class="st23" d="M6921.2-219.5c211.2-152.6,314.2-43.1,116.2,123.6c106.5,135.4-65.5,273.8-193.9,155.2
			c-205.7,155.7-309.6,44.5-116.6-124.5C6612.8-205.1,6785.8-341.8,6921.2-219.5z"/>
		<path class="st0" d="M6995.6,291c102.9-78.2,150.7-25.7,53.9,59.3c49.9,65.5-34.6,135.7-95.2,78.8c-101.5,79-149.6,25.9-54.1-59.5
			C6848.4,302.8,6933.2,233.1,6995.6,291z"/>
		<path class="st56" d="M6660.2,716.9c199.4-159,292.5-55.2,105.2,117.6c95.8,129.4-66.4,273.4-182.9,161.2
			c-193.8,162.1-288.2,55.8-105.8-118.8C6373.3,742.5,6536.7,600.9,6660.2,716.9z"/>
		<path class="st0" d="M6718.3,1218.3c96.8-81.6,139.7-31.9,48.4,56.1c44.5,62.4-35.1,135.5-89.7,82c-95.4,82.4-138.7,32-48.6-56.5
			C6582,1236.1,6662,1163.8,6718.3,1218.3z"/>
		<path class="st24" d="M6399.3,1653.3c187.5-165.5,270.9-67.2,94.3,111.6c85,123.4-67.3,273-172,167.2
			c-181.8,168.5-266.8,67-95.1-113.1C6133.7,1690.2,6287.7,1543.7,6399.3,1653.3z"/>
		<path class="st0" d="M6441,2145.7c90.8-85,128.7-38.2,42.9,53c39,59.3-35.6,135.2-84.1,85.1c-89.4,85.8-127.8,38.1-43.1-53.4
			C6315.6,2169.5,6390.8,2094.5,6441,2145.7z"/>
		<path class="st109" d="M6138.3,2589.6c175.6-172,249.2-79.2,83.3,105.5c74.3,117.4-68.2,272.6-161,173.3
			c-169.9,174.9-245.4,78.3-84.3-107.4C5894.2,2637.8,6038.7,2486.5,6138.3,2589.6z"/>
		<path class="st0" d="M6163.8,3073c84.7-88.4,117.8-44.4,37.3,49.8c33.6,56.2-36.1,134.9-78.6,88.2
			c-83.3,89.2-116.9,44.1-37.6-50.3C6049.3,3102.9,6119.5,3025.2,6163.8,3073z"/>
		<path class="st22" d="M5877.4,3525.9c163.8-178.4,227.5-91.2,72.4,99.5c63.5,111.5-69.2,272.1-150.1,179.3
			c-158,181.3-224,89.6-73.5-101.7C5654.6,3585.4,5789.7,3429.2,5877.4,3525.9z"/>
		<path class="st0" d="M5886.5,4000.3c78.7-91.8,106.8-50.6,31.8,46.7c28.1,53.1-36.6,134.7-73.1,91.4
			c-77.3,92.6-106,50.2-32.1-47.3C5782.9,4036.3,5848.3,3956,5886.5,4000.3z"/>
		<path class="st110" d="M5616.4,4462.3c151.9-184.9,205.8-103.2,61.5,93.5c52.8,105.5-70.1,271.7-139.2,185.4
			c-146.1,187.8-202.6,101-62.8-96C5415.1,4533.1,5540.6,4372,5616.4,4462.3z"/>
		<path class="st0" d="M5609.2,4927.6c72.7-95.2,95.8-56.9,26.2,43.5c22.7,50-37.1,134.4-67.5,94.5c-71.2,96-95.1,56.3-26.6-44.2
			C5516.5,4969.7,5577.1,4886.7,5609.2,4927.6z"/>
		<path class="st107" d="M5355.5,5398.6c140-191.3,184-115.2,50.5,87.4c42,99.6-71.1,271.4-128.2,191.4
			c-134.2,194.2-181.3,112.3-52-90.3C5175.5,5480.8,5291.6,5314.8,5355.5,5398.6z"/>
		<path class="st0" d="M5332,5855c66.6-98.6,84.8-63.1,20.7,40.4c17.2,46.9-37.6,134.2-62,97.7c-65.2,99.4-84.2,62.3-21.1-41.2
			C5250.2,5903.1,5305.9,5817.4,5332,5855z"/>
		<path class="st111" d="M5094.6,6334.9c128-197.7,162.3-127.1,39.6,81.4c31.2,93.6-72.1,271-117.3,197.4
			c-122.3,200.7-159.9,123.6-41.2-84.6C4935.9,6428.4,5042.5,6257.6,5094.6,6334.9z"/>
		<path class="st0" d="M8442.5-2491.8c123.7-66.3,183.9-6.8,67.7,67c63.1,73-38.8,133.2-114.6,67.8c-122.4,67.3-182.5,7.7-67.7-67
			C8262.9-2498,8364.7-2558.3,8442.5-2491.8z"/>
		<path class="st73" d="M8042.5-2101.9c240.1-136.8,357.6-19.4,132.3,132.1c121.5,143.3-74.8,268.3-221,140.4
			c-234.8,140.5-352.5,22.8-132.4-132.3C7692.1-2109.1,7888.7-2233.6,8042.5-2101.9z"/>
		<path class="st0" d="M8127.5-1586.5c117.4-70.1,172.5-13.8,61.9,63.5c57.4,69.5-39.3,132.9-108.8,71.3
			c-116.1,71.1-171.2,14.5-62-63.6C7959.2-1586,8056-1649.2,8127.5-1586.5z"/>
		<path class="st105" d="M7744.4-1186.5c227.8-144.1,335.1-33,120.9,125.4c110.3,136.5-75.8,267.7-209.7,147.2
			c-222.4,147.7-330.3,35.5-121.2-125.9C7416.2-1181,7603-1311.1,7744.4-1186.5z"/>
		<path class="st0" d="M7812.5-681.3c111.2-74,161.1-20.8,56.2,60c51.8,66-39.8,132.6-103.1,74.8c-109.8,74.9-159.9,21.3-56.3-60.1
			C7655.5-673.9,7747.3-740.2,7812.5-681.3z"/>
		<path class="st34" d="M7446.4-271.1c215.5-151.5,312.6-46.5,109.5,118.6c99.2,129.8-76.7,267.2-198.3,154
			c-210,154.9-308.1,48.2-110-119.4C7140.4-252.8,7317.3-388.5,7446.4-271.1z"/>
		<path class="st0" d="M7497.5,224c104.9-77.8,149.7-27.8,50.4,56.5c46.1,62.5-40.3,132.3-97.3,78.3
			c-103.5,78.7-148.6,28.1-50.6-56.7C7351.8,238.1,7438.6,168.9,7497.5,224z"/>
		<path class="st108" d="M7148.3,644.3c203.3-158.8,290.1-60,98.2,111.8c88.1,123-77.7,266.7-186.9,160.8
			c-197.6,162.1-285.9,60.9-98.9-113C6864.5,675.3,7031.6,534.1,7148.3,644.3z"/>
		<path class="st0" d="M7182.5,1129.2c98.6-81.6,138.2-34.7,44.7,52.9c40.5,59.1-40.8,132-91.6,81.8
			c-97.2,82.5-137.2,34.9-44.9-53.3C7048.1,1150.2,7129.8,1077.9,7182.5,1129.2z"/>
		<path class="st38" d="M6850.2,1559.7c190.9-166.1,267.6-73.6,86.8,105c76.9,116.3-78.6,266.2-175.6,167.6
			c-185.2,169.3-263.7,73.7-87.7-106.5C6588.6,1603.5,6745.9,1456.7,6850.2,1559.7z"/>
		<path class="st0" d="M6867.5,2034.5c92.4-85.4,126.8-41.7,38.9,49.4c34.8,55.6-41.3,131.7-85.8,85.4
			c-90.9,86.3-125.9,41.7-39.2-49.8C6744.4,2062.2,6821.1,1987,6867.5,2034.5z"/>
		<path class="st112" d="M6552.1,2475.1c178.6-173.3,245.1-87.1,75.5,98.2c65.7,109.6-79.6,265.7-164.2,174.3
			c-172.8,176.6-241.5,86.5-76.6-100.1C6312.7,2531.6,6460.2,2379.3,6552.1,2475.1z"/>
		<path class="st0" d="M6552.5,2939.7c86.1-89.2,115.4-48.7,33.2,45.9c29.1,52.1-41.8,131.4-80.1,88.9
			c-84.6,90.1-114.6,48.5-33.5-46.4C6440.8,2974.3,6512.4,2896,6552.5,2939.7z"/>
		<path class="st77" d="M6254.1,3390.5c166.3-180.6,222.6-100.5,64.1,91.5c54.6,102.9-80.5,265.2-152.9,181.1
			c-160.5,183.8-219.3,99.3-65.4-93.6C6036.9,3459.8,6174.5,3302,6254.1,3390.5z"/>
		<path class="st0" d="M6237.5,3845c79.8-93,104-55.7,27.4,42.4c23.5,48.6-42.4,131.1-74.3,92.4c-78.3,93.9-103.2,55.3-27.8-43
			C6137.1,3886.3,6203.7,3805.1,6237.5,3845z"/>
		<path class="st113" d="M5956,4305.8c154-187.8,200-114,52.8,84.7c43.4,96.2-81.5,264.7-141.5,187.9
			c-148.1,191.1-197.2,112.1-54.2-87.2C5761,4387.9,5888.8,4224.6,5956,4305.8z"/>
		<path class="st0" d="M5922.4,4750.2c73.5-96.8,92.6-62.7,21.7,38.9c17.8,45.2-42.9,130.8-68.6,95.9
			c-72.1,97.7-91.9,62.1-22.1-39.6C5833.4,4798.4,5894.9,4714.1,5922.4,4750.2z"/>
		<path class="st77" d="M5658,5221.2c141.6-195.1,177.5-127.4,41.4,77.9c32.2,89.6-82.5,264.3-130.2,194.7
			c-135.8,198.3-175,124.9-43.1-80.7C5485.1,5316.1,5603.1,5147.2,5658,5221.2z"/>
		<path class="st0" d="M5607.4,5655.4c67.2-100.6,81.1-69.6,15.9,35.4c12.1,41.7-43.4,130.5-62.8,99.4
			c-65.8,101.5-80.6,69-16.4-36.1C5529.7,5710.4,5586.2,5623.2,5607.4,5655.4z"/>
		<path class="st5" d="M5359.9,6136.6c129.2-202.3,154.9-140.9,30.1,71.1c20.9,82.9-83.5,263.9-118.8,201.5
			c-123.5,205.6-152.9,137.7-31.9-74.3C5209.1,6244.3,5317.4,6069.9,5359.9,6136.6z"/>
	</g>
</g>
</svg>
